<?xml version="1.0" encoding="UTF-8"?>
<svg xmlns="http://www.w3.org/2000/svg" xmlns:xlink="http://www.w3.org/1999/xlink" width="64px" height="64px" viewBox="0 0 64 38" version="1.1">
<g id="surface1">
<path style=" stroke:none;fill-rule:nonzero;fill:rgb(14.509804%,18.431373%,24.313725%);fill-opacity:1;" d="M 18.191406 13.863281 C 18.191406 14.636719 18.273438 15.261719 18.421875 15.722656 C 18.589844 16.179688 18.800781 16.683594 19.09375 17.226562 C 19.199219 17.390625 19.242188 17.558594 19.242188 17.707031 C 19.242188 17.914062 19.117188 18.125 18.84375 18.332031 L 17.515625 19.207031 C 17.328125 19.335938 17.136719 19.398438 16.96875 19.398438 C 16.757812 19.398438 16.546875 19.292969 16.335938 19.105469 C 16.042969 18.792969 15.789062 18.457031 15.578125 18.125 C 15.367188 17.769531 15.15625 17.371094 14.925781 16.890625 C 13.285156 18.8125 11.222656 19.773438 8.738281 19.773438 C 6.96875 19.773438 5.558594 19.269531 4.527344 18.269531 C 3.496094 17.265625 2.96875 15.929688 2.96875 14.261719 C 2.96875 12.484375 3.601562 11.046875 4.882812 9.960938 C 6.167969 8.875 7.875 8.332031 10.042969 8.332031 C 10.757812 8.332031 11.496094 8.394531 12.273438 8.496094 C 13.050781 8.601562 13.851562 8.769531 14.695312 8.957031 L 14.695312 7.433594 C 14.695312 5.847656 14.359375 4.738281 13.707031 4.09375 C 13.03125 3.445312 11.894531 3.132812 10.273438 3.132812 C 9.535156 3.132812 8.777344 3.214844 8 3.402344 C 7.222656 3.589844 6.464844 3.820312 5.726562 4.113281 C 5.390625 4.257812 5.136719 4.34375 4.988281 4.382812 C 4.84375 4.425781 4.738281 4.445312 4.652344 4.445312 C 4.359375 4.445312 4.210938 4.238281 4.210938 3.800781 L 4.210938 2.777344 C 4.210938 2.441406 4.253906 2.191406 4.359375 2.046875 C 4.464844 1.898438 4.652344 1.753906 4.949219 1.609375 C 5.683594 1.230469 6.570312 0.917969 7.601562 0.667969 C 8.632812 0.398438 9.726562 0.269531 10.882812 0.269531 C 13.390625 0.269531 15.222656 0.835938 16.398438 1.960938 C 17.558594 3.089844 18.148438 4.800781 18.148438 7.097656 L 18.148438 13.863281 Z M 9.640625 17.039062 C 10.335938 17.039062 11.050781 16.910156 11.808594 16.660156 C 12.570312 16.410156 13.242188 15.953125 13.808594 15.324219 C 14.148438 14.929688 14.398438 14.488281 14.527344 13.988281 C 14.652344 13.488281 14.738281 12.882812 14.738281 12.171875 L 14.738281 11.296875 C 14.125 11.148438 13.472656 11.023438 12.800781 10.941406 C 12.125 10.855469 11.472656 10.816406 10.820312 10.816406 C 9.410156 10.816406 8.378906 11.085938 7.683594 11.652344 C 6.988281 12.214844 6.652344 13.007812 6.652344 14.050781 C 6.652344 15.03125 6.90625 15.765625 7.429688 16.265625 C 7.9375 16.785156 8.671875 17.039062 9.640625 17.039062 Z M 26.546875 19.292969 C 26.167969 19.292969 25.914062 19.230469 25.746094 19.082031 C 25.578125 18.957031 25.429688 18.664062 25.304688 18.269531 L 20.359375 2.128906 C 20.230469 1.710938 20.167969 1.441406 20.167969 1.292969 C 20.167969 0.960938 20.335938 0.773438 20.671875 0.773438 L 22.738281 0.773438 C 23.136719 0.773438 23.410156 0.835938 23.558594 0.980469 C 23.726562 1.105469 23.851562 1.398438 23.980469 1.796875 L 27.515625 15.617188 L 30.800781 1.796875 C 30.90625 1.378906 31.03125 1.105469 31.199219 0.980469 C 31.367188 0.855469 31.664062 0.773438 32.042969 0.773438 L 33.726562 0.773438 C 34.125 0.773438 34.398438 0.835938 34.570312 0.980469 C 34.738281 1.105469 34.882812 1.398438 34.96875 1.796875 L 38.292969 15.785156 L 41.9375 1.796875 C 42.0625 1.378906 42.210938 1.105469 42.359375 0.980469 C 42.527344 0.855469 42.800781 0.773438 43.179688 0.773438 L 45.136719 0.773438 C 45.472656 0.773438 45.664062 0.941406 45.664062 1.292969 C 45.664062 1.398438 45.640625 1.503906 45.621094 1.628906 C 45.601562 1.753906 45.558594 1.921875 45.472656 2.152344 L 40.398438 18.289062 C 40.273438 18.707031 40.125 18.980469 39.957031 19.105469 C 39.789062 19.230469 39.515625 19.3125 39.15625 19.3125 L 37.347656 19.3125 C 36.949219 19.3125 36.671875 19.25 36.503906 19.105469 C 36.335938 18.957031 36.191406 18.6875 36.105469 18.269531 L 32.84375 4.800781 L 29.601562 18.25 C 29.496094 18.664062 29.367188 18.9375 29.199219 19.082031 C 29.03125 19.230469 28.738281 19.292969 28.359375 19.292969 Z M 53.601562 19.855469 C 52.503906 19.855469 51.410156 19.730469 50.359375 19.480469 C 49.304688 19.230469 48.484375 18.957031 47.9375 18.644531 C 47.601562 18.457031 47.367188 18.25 47.285156 18.058594 C 47.199219 17.871094 47.15625 17.664062 47.15625 17.476562 L 47.15625 16.410156 C 47.15625 15.972656 47.328125 15.765625 47.640625 15.765625 C 47.769531 15.765625 47.894531 15.785156 48.019531 15.828125 C 48.148438 15.867188 48.335938 15.953125 48.546875 16.035156 C 49.261719 16.347656 50.042969 16.597656 50.863281 16.765625 C 51.707031 16.933594 52.527344 17.015625 53.367188 17.015625 C 54.695312 17.015625 55.726562 16.785156 56.441406 16.328125 C 57.15625 15.867188 57.535156 15.199219 57.535156 14.34375 C 57.535156 13.757812 57.347656 13.277344 56.96875 12.882812 C 56.589844 12.484375 55.875 12.128906 54.84375 11.796875 L 51.789062 10.855469 C 50.253906 10.375 49.117188 9.667969 48.421875 8.726562 C 47.726562 7.808594 47.367188 6.785156 47.367188 5.699219 C 47.367188 4.824219 47.558594 4.050781 47.9375 3.382812 C 48.316406 2.714844 48.820312 2.128906 49.453125 1.671875 C 50.085938 1.191406 50.800781 0.835938 51.640625 0.585938 C 52.484375 0.335938 53.367188 0.230469 54.292969 0.230469 C 54.757812 0.230469 55.242188 0.25 55.707031 0.3125 C 56.191406 0.375 56.632812 0.460938 57.074219 0.542969 C 57.496094 0.648438 57.894531 0.75 58.273438 0.875 C 58.652344 1.003906 58.949219 1.128906 59.15625 1.253906 C 59.453125 1.417969 59.664062 1.585938 59.789062 1.773438 C 59.914062 1.941406 59.980469 2.171875 59.980469 2.464844 L 59.980469 3.445312 C 59.980469 3.882812 59.808594 4.113281 59.496094 4.113281 C 59.328125 4.113281 59.050781 4.03125 58.695312 3.863281 C 57.496094 3.320312 56.148438 3.046875 54.652344 3.046875 C 53.453125 3.046875 52.503906 3.234375 51.851562 3.632812 C 51.199219 4.03125 50.863281 4.636719 50.863281 5.492188 C 50.863281 6.074219 51.074219 6.578125 51.496094 6.972656 C 51.914062 7.371094 52.695312 7.765625 53.808594 8.121094 L 56.800781 9.0625 C 58.316406 9.542969 59.410156 10.210938 60.0625 11.066406 C 60.714844 11.921875 61.03125 12.902344 61.03125 13.988281 C 61.03125 14.886719 60.84375 15.699219 60.484375 16.410156 C 60.105469 17.121094 59.601562 17.746094 58.949219 18.25 C 58.292969 18.769531 57.515625 19.144531 56.609375 19.417969 C 55.664062 19.710938 54.671875 19.855469 53.601562 19.855469 Z M 53.601562 19.855469 "/>
<path style=" stroke:none;fill-rule:evenodd;fill:rgb(100%,60%,0%);fill-opacity:1;" d="M 57.578125 30.003906 C 50.652344 35.078125 40.589844 37.769531 31.9375 37.769531 C 19.808594 37.769531 8.882812 33.324219 0.632812 25.933594 C -0.0195312 25.347656 0.570312 24.554688 1.347656 25.011719 C 10.273438 30.148438 21.285156 33.261719 32.671875 33.261719 C 40.359375 33.261719 48.800781 31.671875 56.570312 28.417969 C 57.726562 27.894531 58.714844 29.167969 57.578125 30.003906 Z M 57.578125 30.003906 "/>
<path style=" stroke:none;fill-rule:evenodd;fill:rgb(100%,60%,0%);fill-opacity:1;" d="M 60.464844 26.746094 C 59.578125 25.617188 54.609375 26.203125 52.359375 26.476562 C 51.683594 26.558594 51.578125 25.972656 52.191406 25.535156 C 56.148438 22.777344 62.652344 23.574219 63.410156 24.492188 C 64.167969 25.429688 63.199219 31.882812 59.496094 34.972656 C 58.925781 35.453125 58.378906 35.203125 58.632812 34.574219 C 59.472656 32.507812 61.347656 27.851562 60.464844 26.746094 Z M 60.464844 26.746094 "/>
</g>
</svg>
