<?xml version="1.0" encoding="UTF-8"?>
<svg xmlns="http://www.w3.org/2000/svg" xmlns:xlink="http://www.w3.org/1999/xlink" width="64px" height="64px" viewBox="0 0 64 71" version="1.1">
<g id="surface1">
<path style=" stroke:none;fill-rule:nonzero;fill:rgb(0%,34.901961%,61.176471%);fill-opacity:1;" d="M 63.1875 53.304688 C 63.6875 52.445312 64 51.476562 64 50.609375 L 64 20.460938 C 64 19.59375 63.6875 18.625 63.1875 17.769531 L 32 35.535156 Z M 63.1875 53.304688 "/>
<path style=" stroke:none;fill-rule:nonzero;fill:rgb(0%,26.666667%,50.980392%);fill-opacity:1;" d="M 34.769531 70.421875 L 61.230469 55.347656 C 61.992188 54.914062 62.683594 54.164062 63.1875 53.304688 L 32 35.535156 L 0.8125 53.304688 C 1.316406 54.164062 2.007812 54.914062 2.769531 55.347656 L 29.230469 70.421875 C 30.753906 71.289062 33.246094 71.289062 34.769531 70.421875 Z M 34.769531 70.421875 "/>
<path style=" stroke:none;fill-rule:nonzero;fill:rgb(39.607843%,60.392157%,82.352941%);fill-opacity:1;" d="M 63.1875 17.769531 C 62.683594 16.910156 61.992188 16.160156 61.230469 15.726562 L 34.769531 0.652344 C 33.246094 -0.21875 30.753906 -0.21875 29.230469 0.652344 L 2.769531 15.726562 C 1.246094 16.59375 0 18.726562 0 20.460938 L 0 50.609375 C 0 51.476562 0.3125 52.445312 0.8125 53.304688 L 32 35.535156 Z M 63.1875 17.769531 "/>
<path style=" stroke:none;fill-rule:nonzero;fill:rgb(100%,100%,100%);fill-opacity:1;" d="M 32 56.589844 C 20.238281 56.589844 10.667969 47.144531 10.667969 35.535156 C 10.667969 23.929688 20.238281 14.484375 32 14.484375 C 39.589844 14.484375 46.667969 18.515625 50.472656 25.003906 L 41.242188 30.277344 C 39.335938 27.027344 35.796875 25.011719 32 25.011719 C 26.117188 25.011719 21.332031 29.730469 21.332031 35.535156 C 21.332031 41.339844 26.117188 46.0625 32 46.0625 C 35.796875 46.0625 39.339844 44.042969 41.242188 40.796875 L 50.476562 46.066406 C 46.671875 52.558594 39.589844 56.589844 32 56.589844 Z M 32 56.589844 "/>
<path style=" stroke:none;fill-rule:nonzero;fill:rgb(100%,100%,100%);fill-opacity:1;" d="M 53.332031 34.367188 L 50.960938 34.367188 L 50.960938 32.027344 L 48.59375 32.027344 L 48.59375 34.367188 L 46.222656 34.367188 L 46.222656 36.707031 L 48.59375 36.707031 L 48.59375 39.042969 L 50.960938 39.042969 L 50.960938 36.707031 L 53.332031 36.707031 Z M 53.332031 34.367188 "/>
<path style=" stroke:none;fill-rule:nonzero;fill:rgb(100%,100%,100%);fill-opacity:1;" d="M 62.222656 34.367188 L 59.851562 34.367188 L 59.851562 32.027344 L 57.480469 32.027344 L 57.480469 34.367188 L 55.109375 34.367188 L 55.109375 36.707031 L 57.480469 36.707031 L 57.480469 39.042969 L 59.851562 39.042969 L 59.851562 36.707031 L 62.222656 36.707031 Z M 62.222656 34.367188 "/>
</g>
</svg>
