<?xml version="1.0" encoding="UTF-8"?>
<svg xmlns="http://www.w3.org/2000/svg" xmlns:xlink="http://www.w3.org/1999/xlink" width="64px" height="64px" viewBox="0 0 64 70" version="1.1">
<g id="surface1">
<path style=" stroke:none;fill-rule:evenodd;fill:rgb(0%,26.666667%,50.980392%);fill-opacity:1;" d="M 30.152344 0.476562 C 31.296875 -0.15625 32.703125 -0.15625 33.847656 0.476562 C 39.496094 3.617188 56.5 13.0625 62.152344 16.199219 C 63.296875 16.832031 64 18.007812 64 19.277344 C 64 25.554688 64 44.445312 64 50.722656 C 64 51.992188 63.296875 53.164062 62.152344 53.800781 C 56.5 56.9375 39.5 66.386719 33.847656 69.523438 C 32.703125 70.160156 31.292969 70.160156 30.152344 69.523438 C 24.5 66.386719 7.5 56.9375 1.847656 53.800781 C 0.703125 53.164062 0 51.992188 0 50.722656 C 0 44.445312 0 25.554688 0 19.277344 C 0 18.007812 0.703125 16.835938 1.847656 16.199219 C 7.496094 13.0625 24.503906 3.617188 30.152344 0.476562 Z M 30.152344 0.476562 "/>
<path style=" stroke:none;fill-rule:evenodd;fill:rgb(39.607843%,60.392157%,82.352941%);fill-opacity:1;" d="M 0.511719 52.339844 C 0.0625 51.746094 0 51.183594 0 50.425781 C 0 44.183594 0 25.402344 0 19.160156 C 0 17.898438 0.703125 16.730469 1.84375 16.101562 C 7.472656 12.980469 24.417969 3.589844 30.050781 0.46875 C 31.191406 -0.164062 32.734375 -0.152344 33.875 0.480469 C 39.503906 3.601562 56.394531 12.914062 62.023438 16.03125 C 62.480469 16.285156 62.824219 16.589844 63.136719 16.992188 Z M 0.511719 52.339844 "/>
<path style=" stroke:none;fill-rule:evenodd;fill:rgb(100%,100%,100%);fill-opacity:1;" d="M 32 11.667969 C 45.015625 11.667969 55.578125 22.121094 55.578125 35 C 55.578125 47.878906 45.015625 58.332031 32 58.332031 C 18.984375 58.332031 8.421875 47.878906 8.421875 35 C 8.421875 22.121094 18.984375 11.667969 32 11.667969 Z M 32 23.332031 C 38.507812 23.332031 43.789062 28.558594 43.789062 35 C 43.789062 41.4375 38.507812 46.667969 32 46.667969 C 25.492188 46.667969 20.210938 41.4375 20.210938 35 C 20.210938 28.558594 25.492188 23.332031 32 23.332031 Z M 32 23.332031 "/>
<path style=" stroke:none;fill-rule:evenodd;fill:rgb(0%,34.901961%,61.176471%);fill-opacity:1;" d="M 63.132812 17.007812 C 64 17.8125 63.984375 19.027344 63.984375 19.980469 C 63.984375 26.308594 63.929688 44.296875 64 50.621094 C 64.007812 51.28125 63.785156 51.976562 63.457031 52.5 L 31.316406 35 Z M 63.132812 17.007812 "/>
</g>
</svg>
