<?xml version="1.0" encoding="UTF-8"?>
<svg xmlns="http://www.w3.org/2000/svg" xmlns:xlink="http://www.w3.org/1999/xlink" width="64px" height="64px" viewBox="0 0 64 90" version="1.1">
<g id="surface1">
<path style=" stroke:none;fill-rule:nonzero;fill:rgb(14.901961%,30.196078%,89.411765%);fill-opacity:1;" d="M 63.953125 17.6875 L 58.125 82.761719 L 31.9375 90 L 5.820312 82.769531 L 0 17.6875 Z M 63.953125 17.6875 "/>
<path style=" stroke:none;fill-rule:nonzero;fill:rgb(16.078431%,39.607843%,94.509804%);fill-opacity:1;" d="M 53.140625 78.617188 L 58.117188 23.007812 L 31.976562 23.007812 L 31.976562 84.46875 Z M 53.140625 78.617188 "/>
<path style=" stroke:none;fill-rule:nonzero;fill:rgb(92.156863%,92.156863%,92.156863%);fill-opacity:1;" d="M 13.34375 47.148438 L 14.058594 55.128906 L 31.976562 55.128906 L 31.976562 47.148438 Z M 13.34375 47.148438 "/>
<path style=" stroke:none;fill-rule:nonzero;fill:rgb(92.156863%,92.156863%,92.156863%);fill-opacity:1;" d="M 31.976562 30.992188 L 11.902344 30.992188 L 12.628906 38.972656 L 31.976562 38.972656 Z M 31.976562 30.992188 "/>
<path style=" stroke:none;fill-rule:nonzero;fill:rgb(92.156863%,92.156863%,92.156863%);fill-opacity:1;" d="M 31.976562 76.183594 L 31.976562 67.878906 L 31.941406 67.886719 L 23.023438 65.488281 L 22.453125 59.121094 L 14.417969 59.121094 L 15.539062 71.65625 L 31.941406 76.195312 Z M 31.976562 76.183594 "/>
<path style=" stroke:none;fill-rule:nonzero;fill:rgb(0%,0%,0%);fill-opacity:1;" d="M 15.050781 0 L 24.746094 0 L 24.746094 4.042969 L 19.105469 4.042969 L 19.105469 8.085938 L 24.746094 8.085938 L 24.746094 12.128906 L 15.050781 12.128906 Z M 15.050781 0 "/>
<path style=" stroke:none;fill-rule:nonzero;fill:rgb(0%,0%,0%);fill-opacity:1;" d="M 26.6875 0 L 36.382812 0 L 36.382812 3.515625 L 30.742188 3.515625 L 30.742188 4.21875 L 36.382812 4.21875 L 36.382812 12.304688 L 26.6875 12.304688 L 26.6875 8.613281 L 32.328125 8.613281 L 32.328125 7.910156 L 26.6875 7.910156 Z M 26.6875 0 "/>
<path style=" stroke:none;fill-rule:nonzero;fill:rgb(0%,0%,0%);fill-opacity:1;" d="M 38.324219 0 L 48.019531 0 L 48.019531 3.515625 L 42.378906 3.515625 L 42.378906 4.21875 L 48.019531 4.21875 L 48.019531 12.304688 L 38.324219 12.304688 L 38.324219 8.613281 L 43.964844 8.613281 L 43.964844 7.910156 L 38.324219 7.910156 Z M 38.324219 0 "/>
<path style=" stroke:none;fill-rule:nonzero;fill:rgb(100%,100%,100%);fill-opacity:1;" d="M 41.808594 55.128906 L 40.878906 65.480469 L 31.949219 67.886719 L 31.949219 76.191406 L 48.363281 71.65625 L 48.484375 70.304688 L 50.363281 49.289062 L 50.558594 47.148438 L 52.003906 30.992188 L 31.949219 30.992188 L 31.949219 38.972656 L 43.230469 38.972656 L 42.503906 47.148438 L 31.949219 47.148438 L 31.949219 55.128906 Z M 41.808594 55.128906 "/>
</g>
</svg>
