<?xml version="1.0" encoding="UTF-8"?>
<svg xmlns="http://www.w3.org/2000/svg" xmlns:xlink="http://www.w3.org/1999/xlink" width="64px" height="64px" viewBox="0 0 64 64" version="1.1">
<g id="surface1">
<path style=" stroke:none;fill-rule:nonzero;fill:rgb(100%,100%,100%);fill-opacity:1;" d="M 9.601562 0 L 54.398438 0 C 59.703125 0 64 4.296875 64 9.601562 L 64 54.398438 C 64 59.703125 59.703125 64 54.398438 64 L 9.601562 64 C 4.296875 64 0 59.703125 0 54.398438 L 0 9.601562 C 0 4.296875 4.296875 0 9.601562 0 Z M 9.601562 0 "/>
<path style="fill-rule:nonzero;fill:rgb(0%,0%,0%);fill-opacity:1;stroke-width:38;stroke-linecap:butt;stroke-linejoin:miter;stroke:rgb(2.352941%,42.745098%,64.705882%);stroke-opacity:1;stroke-miterlimit:4;" d="M 296 226 L 338 226 M 246 226 L 288 226 M 197 226 L 239 226 M 148 226 L 189 226 M 98 226 L 140 226 M 148 180 L 189 180 M 197 180 L 239 180 M 246 180 L 288 180 M 246 134 L 288 134 " transform="matrix(0.125,0,0,0.125,0,0)"/>
<path style=" stroke:none;fill-rule:nonzero;fill:rgb(2.352941%,42.745098%,64.705882%);fill-opacity:1;" d="M 59 28.5 C 59 28.5 56.75 26.375 52.125 27.125 C 51.625 23.5 47.75 21.375 47.75 21.375 C 47.75 21.375 44.125 25.75 46.75 30.625 C 46 31 44.75 31.5 42.875 31.5 L 8.5 31.5 C 7.875 33.875 7.875 49.625 25.125 49.625 C 37.5 49.625 46.75 43.875 51.125 33.375 C 57.625 33.875 59 28.5 59 28.5 "/>
</g>
</svg>
