<?xml version="1.0" encoding="UTF-8"?>
<svg xmlns="http://www.w3.org/2000/svg" xmlns:xlink="http://www.w3.org/1999/xlink" width="64px" height="64px" viewBox="0 0 64 64" version="1.1">
<g id="surface1">
<path style=" stroke:none;fill-rule:nonzero;fill:rgb(0%,0%,0%);fill-opacity:1;" d="M 24.679688 37.53125 C 23.296875 36.441406 21.8125 35.390625 20.800781 33.921875 C 18.675781 31.320312 17.035156 28.328125 15.921875 25.164062 C 15.246094 23.117188 15.015625 20.914062 14.144531 18.929688 C 13.234375 17.496094 14.296875 15.9375 15.871094 15.476562 C 16.574219 15.335938 17.804688 14.679688 16.320312 15.15625 C 14.988281 16.128906 14.859375 14.273438 16.230469 14.15625 C 17.164062 14.027344 17.511719 13.273438 17.191406 12.582031 C 16.191406 11.929688 19.609375 11.210938 17.894531 10.238281 C 16.101562 8.308594 20.402344 7.9375 19.339844 10.125 C 19.085938 11.8125 22.347656 9.816406 21.59375 11.761719 C 22.363281 12.699219 24.472656 11.980469 24.421875 13.285156 C 25.546875 13.363281 25.933594 14.308594 26.980469 14.375 C 28.070312 14.859375 30.054688 15.257812 30.414062 16.488281 C 29.335938 17.34375 26.828125 14.71875 26.714844 17.089844 C 27.046875 20.582031 26.957031 24.191406 28.238281 27.53125 C 28.839844 29.554688 30.308594 31.140625 31.640625 32.71875 C 32.910156 34.253906 34.625 35.339844 36.378906 36.25 C 37.914062 36.980469 39.566406 37.453125 41.242188 37.761719 C 41.921875 37.234375 43.125 35.316406 44.1875 36.121094 C 44.238281 37.042969 42.085938 38.042969 44.082031 37.9375 C 45.261719 37.582031 46.078125 38.847656 47.039062 37.707031 C 47.9375 38.769531 50.753906 37.03125 50.113281 39.195312 C 49.253906 39.742188 48 39.410156 47.140625 40.179688 C 45.722656 39.476562 44.59375 40.804688 43.035156 40.640625 C 41.292969 40.945312 39.511719 41.074219 37.746094 41.074219 C 34.855469 40.84375 31.886719 40.753906 29.132812 39.742188 C 27.558594 39.296875 26.046875 38.414062 24.679688 37.53125 Z M 27.136719 38.59375 C 28.644531 39.246094 30.132812 39.9375 31.796875 40.152344 C 34.433594 40.523438 37.160156 41.089844 39.796875 40.574219 C 38.59375 40.039062 37.363281 40.78125 36.160156 40.191406 C 34.726562 40.5 33.191406 40.113281 31.742188 39.921875 C 30.09375 39.179688 28.300781 38.679688 26.753906 37.722656 C 24.820312 37.019531 27.75 38.628906 28.273438 38.757812 C 29.492188 39.449219 26.945312 38.398438 26.585938 38.117188 C 25.574219 37.554688 25.445312 37.671875 26.484375 38.246094 C 26.699219 38.363281 26.90625 38.488281 27.136719 38.59375 Z M 24.242188 36.558594 C 25.714844 37.105469 24.230469 35.519531 23.566406 35.609375 C 23.269531 35.097656 22.425781 34.765625 23.015625 34.484375 C 21.953125 34.855469 21.902344 33.074219 21.390625 33.332031 C 20.261719 32.972656 20.953125 31.707031 19.597656 30.9375 C 19.46875 30.117188 18.265625 29.414062 17.867188 28.171875 C 17.703125 27.546875 16.5 25.726562 17.230469 27.417969 C 17.855469 29.042969 18.957031 30.4375 19.878906 31.820312 C 20.59375 33.140625 21.441406 34.523438 22.734375 35.355469 C 23.207031 35.777344 23.628906 36.414062 24.242188 36.558594 Z M 30.71875 39.28125 C 31.320312 39.667969 34.238281 40.113281 32.410156 39.4375 C 32.101562 39.5 29.03125 38.566406 30.71875 39.28125 Z M 24.0625 33.882812 C 24.769531 34.417969 26.917969 33.945312 25.140625 33.5625 C 24.332031 33.140625 22.527344 32.84375 23.757812 33.816406 Z M 27.480469 35.699219 C 29.210938 36.1875 26.035156 34.609375 27.058594 35.519531 L 27.289062 35.621094 Z M 27.496094 34.777344 C 28.75 34.945312 25.996094 33.921875 27.210938 34.6875 Z M 31.859375 37.464844 C 33.035156 36.761719 32.640625 39.105469 33.84375 37.65625 C 35.035156 36.789062 32.820312 38.734375 34.277344 37.8125 C 35.339844 37.105469 36.902344 38.144531 37.886719 38.488281 C 38.59375 38.453125 39.28125 39.105469 40.011719 38.707031 C 41.40625 38.335938 37.273438 38.144531 38.363281 37.476562 C 37.082031 37.847656 36.132812 37.03125 35.507812 36.210938 C 34.074219 35.878906 32.410156 35.148438 31.691406 33.867188 C 31.398438 33.394531 32.113281 33.933594 31.4375 33.152344 C 30.566406 32.382812 30.144531 31.511719 29.554688 30.578125 C 28.863281 30.207031 28.773438 29.121094 28.710938 30.539062 C 28.710938 29.644531 27.878906 29.042969 27.660156 29.285156 C 27.660156 28.414062 28.570312 28.851562 27.929688 28.210938 C 27.789062 27.316406 27.339844 26.378906 27.210938 25.371094 C 27.007812 24.882812 27.1875 23.832031 26.496094 24.945312 C 26.238281 26.113281 26.417969 23.511719 26.804688 24.371094 C 27.316406 23.5 26.625 23.601562 26.585938 23.71875 C 26.917969 22.976562 26.789062 21.925781 26.496094 22.335938 C 26.675781 21.554688 26.777344 19.457031 26.226562 19.828125 C 26.558594 19.007812 26.855469 16.078125 25.421875 17.191406 C 24.84375 17.203125 23.832031 17.394531 23.359375 17.636719 C 24.859375 18.457031 23.207031 17.933594 22.605469 17.804688 C 22.527344 18.574219 21.925781 18.238281 21.171875 18.238281 C 22.375 18.394531 20.582031 19.46875 19.890625 19.046875 C 18.996094 19.46875 20.660156 20.542969 19.902344 20.875 C 19.992188 21.375 18.535156 20.699219 18.648438 21.847656 C 17.777344 21.476562 18.535156 23.21875 18.96875 22.628906 C 20.441406 23.027344 20.007812 23.9375 20.042969 24.804688 C 19.800781 25.304688 18.855469 23.617188 19.839844 23.691406 C 19.070312 22.4375 18.980469 23.246094 18.34375 23.820312 C 18.1875 23.859375 19.980469 24.652344 18.855469 25.035156 C 19.839844 25.191406 19.867188 26.046875 20.070312 26.597656 C 20.660156 27.210938 20.542969 25.921875 21.246094 26.664062 C 20.800781 25.996094 18.867188 24.804688 20.429688 25.191406 C 20.414062 24.523438 20.148438 23.988281 20.621094 24 C 21.09375 23.140625 20.121094 26.097656 21.183594 25.023438 C 21.476562 24.894531 21.554688 24.167969 22.078125 25.089844 C 22.847656 25.84375 22.363281 26.394531 21.273438 25.703125 C 21.464844 26.355469 22.71875 26.597656 22.488281 27.621094 C 22.746094 28.53125 23.089844 28.199219 23.398438 28.132812 C 23.640625 29.019531 23.769531 28.363281 23.78125 27.941406 C 24.871094 28.171875 24.613281 28.824219 24.960938 29.273438 C 25.714844 29.621094 23.886719 26.96875 25.175781 28.480469 C 26.535156 29.707031 25.691406 30.222656 24.460938 30.027344 C 25.230469 29.964844 25.484375 31.078125 26.445312 31.039062 C 27.328125 31.460938 27.929688 33.074219 26.40625 32.398438 C 25.882812 31.921875 24.011719 31.335938 25.535156 32.242188 C 26.945312 32.894531 28.058594 33.28125 29.414062 34.097656 C 30.386719 34.789062 30.808594 35.585938 31.167969 35.738281 C 30.347656 36.121094 28.710938 35.429688 29.925781 35.210938 C 29.160156 35.070312 28.3125 34.6875 29.042969 35.636719 C 29.65625 36.160156 31.246094 36.097656 31.527344 36.160156 C 31.28125 36.683594 30.875 36.734375 31.539062 36.773438 C 30.824219 37.171875 31.796875 37.234375 31.859375 37.464844 Z M 30.347656 33.203125 C 29.902344 32.730469 29.785156 31.859375 30.273438 32.613281 C 30.515625 32.730469 31.066406 34.0625 30.347656 33.203125 Z M 27.480469 28.46875 C 26.945312 27.277344 27.867188 27.8125 27.597656 28.660156 Z M 22.554688 25.191406 C 22.308594 24.792969 21.914062 23.640625 22.042969 23.296875 C 22.15625 23.871094 23.257812 25.765625 22.578125 24.078125 C 21.835938 22.667969 23.476562 24.539062 23.640625 24.882812 C 23.71875 25.230469 23.179688 24.792969 23.550781 25.613281 C 22.886719 24.679688 23.167969 26.125 22.554688 25.191406 Z M 20.070312 23.105469 C 19.507812 22.539062 19.097656 22.027344 20.097656 22.757812 C 20.480469 22.769531 19.238281 21.582031 20.1875 22.375 C 21.195312 22.566406 20.683594 24.011719 20.070312 23.105469 Z M 20.414062 22.246094 C 18.765625 20.789062 22.476562 23.015625 20.683594 22.515625 Z M 25.125 24.984375 C 24.410156 24.5625 24.933594 21.976562 25.175781 23.742188 C 25.867188 23.511719 25.140625 24.652344 25.652344 24.640625 C 25.585938 25.355469 25.34375 25.613281 25.125 24.984375 Z M 20.734375 21.761719 C 19.671875 20.300781 23.808594 23.230469 21.414062 22.132812 C 21.171875 22.066406 20.863281 22.042969 20.734375 21.761719 Z M 20.902344 21.210938 C 21.53125 21.070312 23.5 22.308594 21.695312 21.566406 C 21.492188 21.335938 21.054688 21.441406 20.902344 21.210938 Z M 26.292969 23.898438 C 26.355469 22.644531 26.664062 23.140625 26.292969 24.078125 Z M 21.363281 20.773438 C 21.621094 20.402344 20.683594 19.070312 21.503906 20.300781 C 21.863281 20.582031 22.527344 20.773438 21.9375 20.890625 C 22.859375 21.695312 21.707031 21.105469 21.363281 20.773438 Z M 25.460938 20.097656 C 25.125 19.519531 25.867188 17.5625 25.957031 18.777344 C 25.613281 19.726562 25.855469 20.25 26.097656 18.980469 C 26.546875 17.984375 26.007812 20.953125 25.460938 20.097656 Z M 26.816406 34.113281 C 27.75 34.355469 27.75 33.972656 26.90625 33.855469 C 26.457031 33.433594 25.011719 32.984375 26.304688 33.804688 C 26.378906 34.023438 26.648438 34.007812 26.816406 34.113281 Z M 23.5 31.910156 C 24.011719 32.292969 25.445312 33 24.230469 32.050781 C 24.640625 31.578125 23.449219 31.320312 23.847656 31.015625 C 22.847656 30.398438 23.054688 30.453125 23.757812 30.476562 C 22.554688 29.9375 23.9375 29.976562 23.859375 29.707031 C 23.398438 29.621094 21.554688 28.890625 22.644531 29.773438 C 21.542969 29.210938 22.386719 29.976562 22.054688 29.902344 C 20.929688 29.59375 23.054688 30.757812 21.875 30.464844 C 22.515625 30.976562 23.617188 31.769531 22.144531 31 C 21.953125 31.28125 23.195312 31.707031 23.5 31.910156 Z M 35.1875 38.757812 C 35.6875 38.285156 35.210938 39.527344 36.007812 38.644531 C 36.019531 38.015625 35.980469 37.644531 35.085938 38.414062 C 34.839844 38.554688 34.726562 39.128906 35.1875 38.757812 Z M 27.109375 33.574219 C 27.660156 34.0625 29.632812 33.933594 27.777344 33.636719 C 27.496094 33.230469 26.023438 33.332031 27.109375 33.574219 Z M 18.0625 27.507812 C 17.265625 26.367188 17.5625 25.855469 16.792969 24.933594 C 16.652344 24.21875 15.476562 22.617188 16.191406 24.320312 C 16.84375 25.304688 17.035156 26.855469 18.0625 27.507812 Z M 37.335938 39.089844 C 38.167969 38.554688 37.144531 38.628906 37.183594 39.140625 Z M 38.679688 39.449219 C 39.757812 38.679688 38.027344 39.296875 38.464844 39.589844 Z M 20.734375 28.019531 C 21.515625 28.199219 23.871094 29.953125 22.476562 28.148438 C 21.773438 27.941406 22.195312 26.203125 21.464844 26.507812 C 21.953125 27.316406 21.863281 27.660156 20.851562 27.148438 C 19.570312 26.523438 20.132812 27.457031 20.378906 27.710938 C 20.042969 27.789062 20.839844 28.007812 20.734375 28.019531 Z M 17.164062 25.203125 C 17.304688 24.628906 15.871094 22.015625 16.488281 23.898438 C 16.71875 24.28125 16.691406 25.035156 17.164062 25.203125 Z M 41.691406 38.734375 C 42.46875 38.578125 44.238281 39.128906 44.519531 38.527344 C 43.570312 38.503906 41.253906 37.863281 41.152344 38.679688 L 41.355469 38.71875 Z M 17.523438 21.863281 C 18.304688 21.554688 16.101562 21.222656 17.371094 21.8125 Z M 15.078125 19.136719 C 14.9375 18.328125 14.949219 16.910156 16.308594 17.382812 C 14.503906 17.742188 17.5625 19.621094 17.175781 18.136719 C 17.933594 18.175781 18.664062 17.691406 18.265625 18.433594 C 19.761719 18.265625 20.800781 16.972656 22.246094 17.152344 C 23.371094 17 24.601562 16.894531 25.816406 16.433594 C 26.816406 16.359375 27.777344 15.296875 27.226562 14.65625 C 25.867188 14.539062 24.449219 14.707031 22.9375 15.015625 C 21.273438 15.359375 19.761719 16.011719 18.085938 16.292969 C 16.449219 16.511719 18.417969 16.894531 17.945312 16.984375 C 17.089844 17.28125 18.96875 17.484375 17.832031 17.792969 C 17.140625 17.664062 16.410156 17.421875 16.703125 16.679688 C 15.128906 16.882812 13.761719 17.535156 15 19.125 Z M 18.867188 17.203125 C 19.238281 15.847656 20.839844 18.316406 19.46875 17.382812 C 19.300781 17.265625 19.035156 17.164062 18.867188 17.203125 Z M 19.609375 16.5625 C 19.660156 15.9375 21.160156 16.894531 19.851562 16.792969 Z M 20.761719 16.027344 C 21.324219 15.347656 23.9375 15.589844 22.027344 15.960938 C 21.515625 15.578125 21.121094 16.191406 20.761719 16.027344 Z M 25.140625 15.5 C 25.496094 14.578125 26.507812 15.128906 25.304688 15.308594 C 25.332031 15.410156 25.265625 15.796875 25.140625 15.5 Z M 47.910156 38.746094 C 48.753906 38.746094 50.46875 38.476562 48.628906 38.488281 C 48.34375 38.527344 46.949219 38.515625 47.910156 38.746094 Z M 18.804688 20.25 C 19.480469 20.199219 19.878906 19.496094 18.675781 19.53125 C 16.804688 19.339844 20.3125 20.171875 18.433594 19.929688 C 18.175781 20.109375 18.789062 20.300781 18.804688 20.25 Z M 17.84375 14.859375 C 19.058594 14.453125 20.734375 13.976562 21.3125 15.066406 C 20.722656 14.363281 21.070312 13.671875 21.632812 14.695312 C 22.414062 15.742188 22.808594 14.222656 22.296875 13.875 C 22.875 14.59375 23.539062 14.9375 22.679688 13.925781 C 23.601562 12.8125 20.824219 14.066406 20.199219 14.054688 C 19.890625 14.183594 17.0625 14.769531 17.84375 14.859375 Z M 18.558594 13.492188 C 19.25 12.964844 20.964844 13.796875 19.867188 12.964844 C 19.761719 12.863281 17.460938 13.59375 18.558594 13.492188 Z M 21.09375 13.59375 C 21.914062 13.621094 20.75 12.492188 21.707031 13.003906 C 21.554688 12.480469 20.582031 12.390625 20.109375 12.171875 C 19.839844 12.644531 20.660156 13.59375 21.09375 13.59375 Z M 20.042969 11.53125 C 21.363281 11.355469 19.710938 10.96875 19.777344 11.519531 Z M 18.097656 10.023438 C 17.175781 8.820312 19.839844 10.226562 18.894531 8.960938 C 18.113281 8.332031 17.355469 9.664062 18.097656 10.023438 Z M 29.964844 16.410156 C 30.386719 15.65625 28.210938 15.398438 29.683594 16.140625 C 29.8125 16.191406 29.785156 16.460938 29.964844 16.410156 Z M 29.964844 16.410156 "/>
<path style=" stroke:none;fill-rule:nonzero;fill:rgb(0%,0%,0%);fill-opacity:1;" d="M 21.363281 44.378906 C 21.273438 44.75 21.210938 45.363281 21.183594 46.246094 C 21.183594 46.414062 21.105469 46.503906 20.953125 46.503906 C 20.800781 46.503906 20.683594 46.425781 20.632812 46.285156 C 20.46875 45.886719 20.3125 45.605469 20.160156 45.441406 C 19.980469 45.246094 19.75 45.132812 19.457031 45.09375 C 19.136719 45.042969 18.355469 45.019531 17.101562 45.019531 C 16.820312 45.019531 16.628906 45.042969 16.539062 45.105469 C 16.488281 45.144531 16.460938 45.222656 16.460938 45.351562 L 16.460938 49.101562 C 16.460938 49.230469 16.539062 49.292969 16.703125 49.28125 C 17.191406 49.28125 17.90625 49.242188 18.839844 49.175781 C 19.019531 49.152344 19.148438 49.101562 19.210938 49 C 19.277344 48.894531 19.339844 48.652344 19.40625 48.242188 C 19.441406 48.027344 19.570312 47.9375 19.789062 47.988281 C 19.980469 48.027344 20.058594 48.113281 20.03125 48.242188 C 19.878906 49 19.828125 49.972656 19.878906 51.175781 C 19.878906 51.316406 19.789062 51.390625 19.609375 51.40625 C 19.457031 51.417969 19.355469 51.339844 19.316406 51.160156 C 19.175781 50.46875 18.90625 50.097656 18.523438 50.0625 C 18.136719 50.007812 17.496094 49.996094 16.613281 49.996094 C 16.511719 49.996094 16.460938 50.035156 16.460938 50.097656 L 16.460938 53.824219 C 16.460938 54.105469 16.5625 54.285156 16.769531 54.386719 C 16.933594 54.464844 17.265625 54.539062 17.804688 54.605469 C 18.074219 54.628906 18.1875 54.746094 18.164062 54.964844 C 18.125 55.140625 17.882812 55.21875 17.433594 55.179688 C 16.128906 55.078125 15.039062 55.078125 14.195312 55.195312 C 13.953125 55.230469 13.835938 55.128906 13.835938 54.898438 C 13.835938 54.757812 13.953125 54.667969 14.195312 54.65625 C 14.734375 54.59375 15 54.117188 15 53.234375 L 15 46.144531 C 15 45.785156 14.9375 45.503906 14.808594 45.300781 C 14.679688 45.105469 14.4375 44.929688 14.078125 44.761719 C 13.863281 44.660156 13.773438 44.53125 13.835938 44.351562 C 13.863281 44.25 13.914062 44.1875 13.964844 44.171875 C 14.015625 44.160156 14.167969 44.171875 14.398438 44.210938 C 14.746094 44.261719 15.566406 44.289062 16.859375 44.289062 C 18.378906 44.289062 19.699219 44.25 20.8125 44.1875 C 21.183594 44.160156 21.363281 44.199219 21.363281 44.273438 C 21.363281 44.328125 21.363281 44.351562 21.363281 44.378906 Z M 21.363281 44.378906 "/>
<path style=" stroke:none;fill-rule:nonzero;fill:rgb(0%,0%,0%);fill-opacity:1;" d="M 26.726562 54.886719 C 26.726562 55.105469 26.597656 55.207031 26.355469 55.179688 C 25.585938 55.105469 24.652344 55.117188 23.527344 55.21875 C 23.296875 55.246094 23.15625 55.230469 23.105469 55.207031 C 23.054688 55.167969 23.027344 55.078125 23.027344 54.9375 C 23.027344 54.808594 23.179688 54.695312 23.476562 54.605469 C 23.78125 54.515625 23.921875 54.246094 23.921875 53.785156 L 23.921875 46.285156 C 23.921875 45.835938 23.859375 45.503906 23.730469 45.300781 C 23.601562 45.09375 23.371094 44.929688 23.054688 44.8125 C 22.886719 44.75 22.796875 44.671875 22.796875 44.558594 C 22.796875 44.390625 22.925781 44.261719 23.167969 44.1875 C 23.539062 44.070312 23.9375 43.878906 24.332031 43.621094 C 24.664062 43.417969 24.871094 43.328125 24.960938 43.328125 C 25.164062 43.328125 25.265625 43.46875 25.265625 43.75 C 25.265625 43.726562 25.253906 44.007812 25.230469 44.582031 C 25.214844 45.132812 25.203125 45.671875 25.214844 46.195312 L 25.253906 53.59375 C 25.253906 53.925781 25.332031 54.167969 25.496094 54.324219 C 25.664062 54.476562 25.945312 54.578125 26.355469 54.628906 C 26.609375 54.628906 26.726562 54.734375 26.726562 54.886719 Z M 26.726562 54.886719 "/>
<path style=" stroke:none;fill-rule:nonzero;fill:rgb(0%,0%,0%);fill-opacity:1;" d="M 34.226562 54.398438 C 34.226562 54.515625 34.023438 54.695312 33.601562 54.925781 C 33.175781 55.15625 32.84375 55.28125 32.589844 55.28125 C 32.371094 55.28125 32.179688 55.179688 32.011719 54.964844 C 31.847656 54.757812 31.730469 54.644531 31.667969 54.644531 C 31.617188 54.644531 31.359375 54.757812 30.886719 54.988281 C 30.414062 55.21875 29.9375 55.335938 29.453125 55.335938 C 29.003906 55.335938 28.621094 55.207031 28.3125 54.9375 C 27.980469 54.644531 27.8125 54.246094 27.8125 53.746094 C 27.8125 52.789062 28.902344 52.109375 31.089844 51.699219 C 31.460938 51.621094 31.65625 51.480469 31.667969 51.238281 L 31.679688 50.714844 C 31.71875 49.804688 31.308594 49.355469 30.476562 49.355469 C 30.234375 49.355469 30.015625 49.574219 29.796875 49.996094 C 29.582031 50.417969 29.285156 50.648438 28.875 50.6875 C 28.429688 50.726562 28.199219 50.546875 28.199219 50.113281 C 28.199219 49.84375 28.53125 49.535156 29.210938 49.191406 C 29.914062 48.820312 30.59375 48.640625 31.246094 48.640625 C 32.371094 48.640625 32.921875 49.175781 32.910156 50.238281 L 32.871094 53.65625 C 32.871094 54.015625 33.011719 54.195312 33.332031 54.195312 C 33.394531 54.195312 33.511719 54.183594 33.675781 54.15625 C 33.84375 54.132812 33.945312 54.117188 33.972656 54.117188 C 34.136719 54.078125 34.226562 54.183594 34.226562 54.398438 Z M 31.667969 52.503906 C 31.667969 52.363281 31.640625 52.273438 31.578125 52.238281 C 31.511719 52.199219 31.398438 52.1875 31.246094 52.210938 C 29.914062 52.453125 29.246094 52.875 29.246094 53.515625 C 29.246094 54.15625 29.59375 54.464844 30.285156 54.464844 C 30.566406 54.464844 30.847656 54.414062 31.140625 54.308594 C 31.488281 54.183594 31.65625 54.042969 31.65625 53.875 Z M 31.667969 52.503906 "/>
<path style=" stroke:none;fill-rule:nonzero;fill:rgb(0%,0%,0%);fill-opacity:1;" d="M 40.382812 53.441406 C 40.382812 54.027344 40.152344 54.488281 39.707031 54.835938 C 39.257812 55.179688 38.644531 55.347656 37.863281 55.347656 C 37.335938 55.347656 36.824219 55.296875 36.300781 55.179688 C 35.851562 55.078125 35.597656 54.988281 35.519531 54.910156 C 35.480469 54.835938 35.457031 54.453125 35.457031 53.773438 C 35.457031 53.476562 35.519531 53.324219 35.660156 53.3125 C 35.789062 53.300781 35.902344 53.363281 36.007812 53.53125 C 36.414062 54.257812 37.09375 54.617188 38.015625 54.617188 C 38.796875 54.617188 39.179688 54.347656 39.179688 53.8125 C 39.179688 53.566406 39.089844 53.375 38.910156 53.210938 C 38.71875 53.03125 38.347656 52.8125 37.785156 52.570312 C 36.980469 52.210938 36.441406 51.890625 36.171875 51.621094 C 35.878906 51.339844 35.738281 50.945312 35.738281 50.457031 C 35.738281 49.855469 35.96875 49.394531 36.429688 49.0625 C 36.851562 48.742188 37.425781 48.574219 38.132812 48.574219 C 38.578125 48.574219 38.988281 48.613281 39.359375 48.679688 C 39.757812 48.753906 39.960938 48.832031 39.988281 48.945312 C 40.027344 49.253906 40.128906 49.703125 40.257812 50.292969 C 40.269531 50.367188 40.191406 50.417969 40.027344 50.46875 C 39.847656 50.507812 39.71875 50.484375 39.667969 50.378906 C 39.230469 49.664062 38.679688 49.320312 38.015625 49.320312 C 37.261719 49.320312 36.875 49.5625 36.875 50.046875 C 36.875 50.316406 36.980469 50.535156 37.183594 50.6875 C 37.363281 50.828125 37.796875 51.046875 38.464844 51.339844 C 39.167969 51.648438 39.65625 51.917969 39.910156 52.160156 C 40.21875 52.492188 40.382812 52.914062 40.382812 53.441406 Z M 40.382812 53.441406 "/>
<path style=" stroke:none;fill-rule:nonzero;fill:rgb(0%,0%,0%);fill-opacity:1;" d="M 50.125 54.898438 C 50.125 55.089844 49.996094 55.195312 49.742188 55.207031 C 49.355469 55.207031 48.84375 55.246094 48.230469 55.28125 C 47.921875 55.347656 47.707031 55.308594 47.566406 55.167969 C 46.695312 54.234375 45.953125 53.246094 45.351562 52.222656 C 45.300781 52.132812 45.234375 52.097656 45.160156 52.097656 C 45.070312 52.097656 44.902344 52.171875 44.671875 52.339844 C 44.414062 52.480469 44.289062 52.683594 44.289062 52.953125 C 44.289062 53.144531 44.289062 53.414062 44.300781 53.761719 C 44.3125 54.117188 44.402344 54.347656 44.570312 54.453125 C 44.683594 54.527344 44.953125 54.59375 45.375 54.628906 C 45.632812 54.667969 45.761719 54.757812 45.761719 54.925781 C 45.761719 55.054688 45.734375 55.128906 45.695312 55.15625 C 45.65625 55.179688 45.542969 55.195312 45.363281 55.179688 C 44.8125 55.128906 43.878906 55.15625 42.558594 55.257812 C 42.226562 55.28125 42.046875 55.246094 42.023438 55.128906 C 42.007812 55.089844 42.007812 55.039062 42.007812 54.964844 C 42.007812 54.796875 42.175781 54.65625 42.523438 54.578125 C 42.828125 54.503906 42.980469 54.144531 42.980469 53.503906 L 42.980469 46.257812 C 42.980469 45.8125 42.945312 45.492188 42.855469 45.3125 C 42.738281 45.082031 42.484375 44.902344 42.085938 44.789062 C 41.90625 44.722656 41.816406 44.644531 41.816406 44.53125 C 41.816406 44.363281 41.945312 44.25 42.203125 44.160156 C 42.609375 44.019531 43.007812 43.828125 43.390625 43.585938 C 43.699219 43.378906 43.878906 43.289062 43.957031 43.289062 C 44.1875 43.289062 44.300781 43.429688 44.300781 43.726562 C 44.300781 43.6875 44.300781 43.957031 44.289062 44.542969 C 44.289062 44.941406 44.273438 45.492188 44.273438 46.167969 L 44.289062 51.355469 C 44.289062 51.496094 44.328125 51.570312 44.402344 51.570312 C 44.480469 51.570312 44.609375 51.496094 44.789062 51.355469 C 45.246094 50.996094 45.8125 50.523438 46.476562 49.945312 C 46.605469 49.804688 46.679688 49.703125 46.679688 49.613281 C 46.679688 49.460938 46.464844 49.355469 46.015625 49.292969 C 45.824219 49.265625 45.734375 49.164062 45.746094 48.972656 C 45.761719 48.78125 45.863281 48.691406 46.042969 48.730469 C 46.4375 48.78125 47.015625 48.820312 47.78125 48.820312 C 48.308594 48.820312 48.84375 48.832031 49.371094 48.832031 C 49.535156 48.832031 49.625 48.933594 49.625 49.140625 C 49.625 49.332031 49.484375 49.433594 49.214844 49.445312 C 48.792969 49.460938 48.382812 49.5625 48.011719 49.742188 C 47.488281 49.984375 46.925781 50.394531 46.335938 50.996094 C 46.296875 51.035156 46.273438 51.070312 46.273438 51.125 C 46.273438 51.199219 46.363281 51.390625 46.554688 51.671875 C 47.246094 52.722656 47.898438 53.515625 48.511719 54.054688 C 48.910156 54.386719 49.265625 54.554688 49.613281 54.554688 C 49.867188 54.554688 50.023438 54.566406 50.085938 54.605469 C 50.097656 54.644531 50.125 54.746094 50.125 54.898438 Z M 50.125 54.898438 "/>
</g>
</svg>
