<?xml version="1.0" encoding="UTF-8"?>
<svg xmlns="http://www.w3.org/2000/svg" xmlns:xlink="http://www.w3.org/1999/xlink" width="64px" height="64px" viewBox="0 0 64 65" version="1.1">
<defs>
<linearGradient id="linear0" gradientUnits="userSpaceOnUse" x1="71.25" y1="10.4893" x2="71.25" y2="113.3415" gradientTransform="matrix(0.448782,0,0,-0.446429,0.0242834,66.339286)">
<stop offset="0" style="stop-color:rgb(98.823529%,93.333333%,12.156863%);stop-opacity:1;"/>
<stop offset="1" style="stop-color:rgb(94.509804%,35.686275%,16.470588%);stop-opacity:1;"/>
</linearGradient>
</defs>
<g id="surface1">
<path style=" stroke:none;fill-rule:nonzero;fill:rgb(33.72549%,33.72549%,33.72549%);fill-opacity:1;" d="M 12.90625 58.707031 C 12.769531 62.230469 9.941406 65 6.441406 65 C 2.761719 65 0.0234375 62.054688 0.0234375 58.4375 C 0.0234375 54.820312 2.984375 51.875 6.621094 51.875 C 8.238281 51.875 9.851562 52.589844 11.199219 53.839844 L 10.167969 55.132812 C 9.132812 54.242188 7.878906 53.617188 6.621094 53.617188 C 3.972656 53.617188 1.773438 55.757812 1.773438 58.4375 C 1.773438 61.160156 3.839844 63.257812 6.441406 63.257812 C 8.777344 63.257812 10.617188 61.5625 11.019531 59.332031 L 5.679688 59.332031 L 5.679688 57.769531 L 12.90625 57.769531 Z M 12.90625 58.707031 "/>
<path style=" stroke:none;fill-rule:nonzero;fill:rgb(33.72549%,33.72549%,33.72549%);fill-opacity:1;" d="M 19.007812 57.8125 L 18.019531 57.8125 C 16.945312 57.8125 16.046875 58.707031 16.046875 59.777344 L 16.046875 64.867188 L 14.296875 64.867188 L 14.296875 56.117188 L 15.730469 56.117188 L 15.730469 56.832031 C 16.226562 56.339844 16.945312 56.117188 17.796875 56.117188 L 19.679688 56.117188 Z M 19.007812 57.8125 "/>
<path style=" stroke:none;fill-rule:nonzero;fill:rgb(33.72549%,33.72549%,33.72549%);fill-opacity:1;" d="M 28.613281 64.867188 L 27.085938 64.867188 L 27.085938 63.75 C 25.917969 64.867188 24.125 65.402344 22.285156 64.597656 C 20.9375 64.019531 19.90625 62.769531 19.636719 61.292969 C 19.097656 58.480469 21.296875 55.980469 24.078125 55.980469 C 25.246094 55.980469 26.324219 56.472656 27.085938 57.230469 L 27.085938 56.117188 L 28.613281 56.117188 Z M 26.816406 61.160156 C 27.21875 59.375 25.875 57.769531 24.125 57.769531 C 22.597656 57.769531 21.386719 59.019531 21.386719 60.492188 C 21.386719 62.1875 22.867188 63.480469 24.617188 63.214844 C 25.648438 63.035156 26.546875 62.1875 26.816406 61.160156 Z M 26.816406 61.160156 "/>
<path style=" stroke:none;fill-rule:nonzero;fill:rgb(33.72549%,33.72549%,33.72549%);fill-opacity:1;" d="M 32.113281 55.667969 L 32.113281 56.160156 L 34.894531 56.160156 L 34.894531 57.679688 L 32.113281 57.679688 L 32.113281 64.867188 L 30.40625 64.867188 L 30.40625 55.714844 C 30.40625 53.792969 31.796875 52.679688 33.546875 52.679688 L 35.65625 52.679688 L 34.941406 54.332031 L 33.546875 54.332031 C 32.742188 54.285156 32.113281 54.910156 32.113281 55.667969 Z M 32.113281 55.667969 "/>
<path style=" stroke:none;fill-rule:nonzero;fill:rgb(33.72549%,33.72549%,33.72549%);fill-opacity:1;" d="M 44.230469 64.867188 L 42.75 64.867188 L 42.75 63.75 C 41.582031 64.867188 39.785156 65.402344 37.945312 64.597656 C 36.601562 64.019531 35.566406 62.769531 35.296875 61.292969 C 34.761719 58.480469 36.960938 55.980469 39.742188 55.980469 C 40.910156 55.980469 41.984375 56.472656 42.75 57.230469 L 42.75 56.117188 L 44.273438 56.117188 L 44.273438 64.867188 Z M 42.433594 61.160156 C 42.839844 59.375 41.492188 57.769531 39.742188 57.769531 C 38.214844 57.769531 37.003906 59.019531 37.003906 60.492188 C 37.003906 62.1875 38.484375 63.480469 40.234375 63.214844 C 41.3125 63.035156 42.164062 62.1875 42.433594 61.160156 Z M 42.433594 61.160156 "/>
<path style=" stroke:none;fill-rule:nonzero;fill:rgb(33.72549%,33.72549%,33.72549%);fill-opacity:1;" d="M 53.609375 59.730469 L 53.609375 64.867188 L 51.859375 64.867188 L 51.859375 59.6875 C 51.859375 58.617188 50.960938 57.722656 49.882812 57.722656 C 48.761719 57.722656 47.910156 58.617188 47.910156 59.6875 L 47.910156 64.867188 L 46.160156 64.867188 L 46.160156 56.117188 L 47.59375 56.117188 L 47.59375 56.875 C 48.222656 56.292969 49.074219 55.980469 49.929688 55.980469 C 51.992188 56.027344 53.609375 57.679688 53.609375 59.730469 Z M 53.609375 59.730469 "/>
<path style=" stroke:none;fill-rule:nonzero;fill:rgb(33.72549%,33.72549%,33.72549%);fill-opacity:1;" d="M 63.929688 64.867188 L 62.449219 64.867188 L 62.449219 63.75 C 61.28125 64.867188 59.488281 65.402344 57.648438 64.597656 C 56.300781 64.019531 55.269531 62.769531 55 61.292969 C 54.460938 58.480469 56.660156 55.980469 59.441406 55.980469 C 60.609375 55.980469 61.6875 56.472656 62.449219 57.230469 L 62.449219 56.117188 L 63.976562 56.117188 L 63.976562 64.867188 Z M 62.136719 61.160156 C 62.539062 59.375 61.191406 57.769531 59.441406 57.769531 C 57.917969 57.769531 56.707031 59.019531 56.707031 60.492188 C 56.707031 62.1875 58.1875 63.480469 59.9375 63.214844 C 61.015625 63.035156 61.867188 62.1875 62.136719 61.160156 Z M 62.136719 61.160156 "/>
<path style=" stroke:none;fill-rule:nonzero;fill:url(#linear0);" d="M 55.179688 22.277344 C 55.089844 21.429688 54.957031 20.445312 54.6875 19.375 C 54.417969 18.304688 53.96875 17.144531 53.382812 15.894531 C 52.757812 14.6875 51.992188 13.394531 50.960938 12.1875 C 50.558594 11.695312 50.109375 11.25 49.660156 10.757812 C 50.378906 7.945312 48.808594 5.492188 48.808594 5.492188 C 46.070312 5.3125 44.363281 6.339844 43.734375 6.785156 C 43.644531 6.742188 43.511719 6.695312 43.421875 6.652344 C 42.972656 6.472656 42.480469 6.292969 41.984375 6.117188 C 41.492188 5.980469 41 5.804688 40.503906 5.714844 C 40.011719 5.582031 39.472656 5.492188 38.933594 5.402344 C 38.84375 5.402344 38.753906 5.355469 38.664062 5.355469 C 37.496094 1.605469 34.085938 0 34.085938 0 C 30.183594 2.5 29.417969 5.847656 29.417969 5.847656 C 29.417969 5.847656 29.417969 5.9375 29.375 6.027344 C 29.148438 6.070312 28.972656 6.160156 28.746094 6.207031 C 28.476562 6.292969 28.164062 6.382812 27.894531 6.519531 C 27.625 6.652344 27.308594 6.742188 27.039062 6.875 C 26.457031 7.144531 25.917969 7.410156 25.335938 7.722656 C 24.796875 8.035156 24.257812 8.347656 23.765625 8.707031 C 23.675781 8.660156 23.628906 8.617188 23.628906 8.617188 C 18.378906 6.605469 13.710938 9.019531 13.710938 9.019531 C 13.308594 14.597656 15.820312 18.082031 16.316406 18.707031 C 16.179688 19.0625 16.089844 19.375 15.957031 19.730469 C 15.550781 20.980469 15.28125 22.277344 15.101562 23.617188 C 15.058594 23.792969 15.058594 24.019531 15.011719 24.195312 C 10.167969 26.5625 8.730469 31.472656 8.730469 31.472656 C 12.769531 36.117188 17.527344 36.382812 17.527344 36.382812 C 18.109375 37.457031 18.828125 38.480469 19.589844 39.417969 C 19.90625 39.820312 20.265625 40.179688 20.625 40.582031 C 19.140625 44.777344 20.847656 48.304688 20.847656 48.304688 C 25.378906 48.480469 28.34375 46.339844 28.972656 45.847656 C 29.417969 45.980469 29.867188 46.117188 30.316406 46.25 C 31.707031 46.605469 33.144531 46.832031 34.535156 46.875 C 34.894531 46.875 35.253906 46.875 35.613281 46.875 L 36.375 46.875 C 38.484375 49.910156 42.253906 50.3125 42.253906 50.3125 C 44.902344 47.5 45.082031 44.777344 45.082031 44.152344 C 45.082031 44.152344 45.082031 44.152344 45.082031 44.105469 C 45.082031 44.0625 45.082031 44.019531 45.082031 44.019531 C 45.082031 43.972656 45.082031 43.929688 45.082031 43.882812 C 45.621094 43.480469 46.160156 43.082031 46.699219 42.632812 C 47.773438 41.695312 48.671875 40.582031 49.480469 39.417969 C 49.570312 39.332031 49.613281 39.195312 49.703125 39.105469 C 52.710938 39.285156 54.820312 37.230469 54.820312 37.230469 C 54.328125 34.105469 52.53125 32.589844 52.171875 32.320312 C 52.171875 32.320312 52.171875 32.320312 52.128906 32.277344 L 52.039062 32.1875 C 52.039062 32.007812 52.082031 31.832031 52.082031 31.605469 C 52.128906 31.25 52.128906 30.9375 52.128906 30.582031 L 52.128906 30.132812 C 52.128906 30.042969 52.128906 30.089844 52.128906 30.042969 L 52.128906 29.554688 C 52.128906 29.464844 52.128906 29.375 52.128906 29.285156 C 52.128906 29.195312 52.128906 29.105469 52.082031 29.019531 L 52.039062 28.75 L 51.992188 28.480469 C 51.949219 28.125 51.859375 27.8125 51.8125 27.457031 C 51.5 26.117188 50.960938 24.820312 50.289062 23.707031 C 49.570312 22.542969 48.71875 21.5625 47.730469 20.667969 C 46.742188 19.820312 45.664062 19.105469 44.5 18.617188 C 43.332031 18.082031 42.164062 17.769531 40.953125 17.632812 C 40.371094 17.542969 39.742188 17.542969 39.15625 17.542969 L 38.484375 17.542969 C 38.394531 17.542969 38.304688 17.542969 38.261719 17.542969 C 37.945312 17.589844 37.632812 17.632812 37.363281 17.679688 C 36.152344 17.902344 35.027344 18.347656 34.042969 18.929688 C 33.054688 19.507812 32.203125 20.269531 31.484375 21.117188 C 30.765625 21.964844 30.226562 22.855469 29.867188 23.839844 C 29.507812 24.777344 29.285156 25.804688 29.238281 26.742188 C 29.238281 26.964844 29.238281 27.230469 29.238281 27.457031 C 29.238281 27.5 29.238281 27.589844 29.238281 27.632812 L 29.238281 27.8125 C 29.238281 27.945312 29.238281 28.035156 29.285156 28.167969 C 29.328125 28.660156 29.417969 29.105469 29.554688 29.554688 C 29.824219 30.445312 30.226562 31.25 30.765625 31.964844 C 31.304688 32.679688 31.886719 33.214844 32.5625 33.660156 C 33.234375 34.105469 33.90625 34.417969 34.625 34.644531 C 35.34375 34.867188 36.015625 34.957031 36.644531 34.910156 C 36.734375 34.910156 36.824219 34.910156 36.871094 34.910156 C 36.914062 34.910156 36.960938 34.910156 37.003906 34.910156 C 37.046875 34.910156 37.09375 34.910156 37.136719 34.910156 C 37.226562 34.910156 37.273438 34.910156 37.363281 34.910156 L 37.453125 34.910156 C 37.496094 34.910156 37.542969 34.910156 37.585938 34.910156 C 37.675781 34.910156 37.765625 34.867188 37.8125 34.867188 C 37.902344 34.867188 37.945312 34.820312 38.035156 34.820312 C 38.171875 34.777344 38.351562 34.730469 38.484375 34.6875 C 38.753906 34.597656 39.023438 34.464844 39.292969 34.375 C 39.5625 34.242188 39.785156 34.105469 39.964844 33.972656 C 40.011719 33.929688 40.101562 33.882812 40.144531 33.839844 C 40.371094 33.660156 40.414062 33.347656 40.234375 33.125 C 40.054688 32.945312 39.785156 32.902344 39.5625 32.992188 C 39.515625 33.035156 39.472656 33.035156 39.382812 33.082031 C 39.203125 33.167969 38.980469 33.257812 38.800781 33.304688 C 38.574219 33.347656 38.351562 33.4375 38.125 33.480469 C 37.992188 33.480469 37.902344 33.527344 37.765625 33.527344 C 37.722656 33.527344 37.632812 33.527344 37.585938 33.527344 C 37.542969 33.527344 37.453125 33.527344 37.40625 33.527344 C 37.363281 33.527344 37.273438 33.527344 37.226562 33.527344 C 37.136719 33.527344 37.09375 33.527344 37.003906 33.527344 C 37.003906 33.527344 36.960938 33.527344 37.003906 33.527344 L 36.914062 33.527344 C 36.871094 33.527344 36.871094 33.527344 36.824219 33.527344 C 36.78125 33.527344 36.691406 33.527344 36.644531 33.480469 C 36.152344 33.394531 35.613281 33.257812 35.117188 33.035156 C 34.625 32.8125 34.132812 32.5 33.726562 32.097656 C 33.277344 31.695312 32.921875 31.25 32.605469 30.714844 C 32.292969 30.179688 32.113281 29.597656 32.023438 29.019531 C 31.976562 28.707031 31.933594 28.394531 31.976562 28.082031 C 31.976562 27.992188 31.976562 27.902344 31.976562 27.8125 C 31.976562 27.855469 31.976562 27.8125 31.976562 27.8125 L 31.976562 27.722656 C 31.976562 27.679688 31.976562 27.632812 31.976562 27.589844 C 31.976562 27.410156 32.023438 27.277344 32.066406 27.097656 C 32.292969 25.757812 32.964844 24.464844 33.996094 23.480469 C 34.265625 23.214844 34.535156 22.992188 34.851562 22.8125 C 35.164062 22.589844 35.476562 22.410156 35.792969 22.277344 C 36.105469 22.144531 36.464844 22.007812 36.824219 21.917969 C 37.183594 21.832031 37.542969 21.742188 37.902344 21.742188 C 38.082031 21.742188 38.261719 21.695312 38.441406 21.695312 C 38.484375 21.695312 38.53125 21.695312 38.574219 21.695312 L 38.800781 21.695312 C 38.84375 21.695312 38.800781 21.695312 38.800781 21.695312 L 38.980469 21.695312 C 39.382812 21.742188 39.785156 21.785156 40.144531 21.875 C 40.910156 22.054688 41.671875 22.320312 42.390625 22.722656 C 43.824219 23.527344 45.039062 24.730469 45.753906 26.207031 C 46.113281 26.917969 46.382812 27.722656 46.519531 28.570312 C 46.5625 28.792969 46.5625 28.972656 46.609375 29.195312 L 46.609375 29.464844 C 46.609375 29.507812 46.609375 29.554688 46.609375 29.597656 C 46.609375 29.644531 46.609375 29.6875 46.609375 29.730469 L 46.609375 30 C 46.609375 30.089844 46.609375 30.269531 46.609375 30.355469 C 46.609375 30.582031 46.5625 30.804688 46.5625 31.027344 C 46.519531 31.25 46.519531 31.472656 46.472656 31.695312 C 46.429688 31.917969 46.382812 32.144531 46.339844 32.367188 C 46.25 32.8125 46.070312 33.214844 45.933594 33.660156 C 45.621094 34.507812 45.171875 35.3125 44.632812 36.027344 C 43.554688 37.5 42.074219 38.707031 40.414062 39.464844 C 39.5625 39.820312 38.710938 40.132812 37.8125 40.269531 C 37.363281 40.355469 36.914062 40.402344 36.464844 40.402344 L 35.792969 40.402344 C 35.835938 40.402344 35.792969 40.402344 35.792969 40.402344 L 35.746094 40.402344 C 35.523438 40.402344 35.253906 40.402344 35.027344 40.355469 C 34.042969 40.269531 33.097656 40.089844 32.15625 39.820312 C 31.214844 39.554688 30.316406 39.195312 29.464844 38.75 C 27.757812 37.855469 26.234375 36.5625 25.019531 35.089844 C 24.4375 34.332031 23.898438 33.527344 23.449219 32.679688 C 23 31.832031 22.6875 30.9375 22.417969 30.042969 C 22.148438 29.152344 22.015625 28.214844 21.96875 27.277344 L 21.96875 26.25 C 21.96875 26.117188 21.96875 26.027344 21.96875 25.894531 C 21.96875 25.445312 22.015625 24.957031 22.105469 24.464844 C 22.148438 23.972656 22.238281 23.527344 22.328125 23.035156 C 22.417969 22.542969 22.554688 22.097656 22.6875 21.605469 C 22.957031 20.667969 23.269531 19.777344 23.675781 18.929688 C 24.484375 17.230469 25.515625 15.714844 26.726562 14.507812 C 27.039062 14.195312 27.355469 13.929688 27.714844 13.660156 C 27.847656 13.527344 28.164062 13.257812 28.523438 13.035156 C 28.882812 12.8125 29.238281 12.589844 29.644531 12.410156 C 29.824219 12.320312 30.003906 12.230469 30.226562 12.144531 C 30.316406 12.097656 30.40625 12.054688 30.542969 12.007812 C 30.632812 11.964844 30.722656 11.917969 30.855469 11.875 C 31.257812 11.695312 31.664062 11.5625 32.066406 11.429688 C 32.15625 11.382812 32.292969 11.382812 32.382812 11.339844 C 32.472656 11.292969 32.605469 11.292969 32.695312 11.25 C 32.921875 11.207031 33.097656 11.160156 33.324219 11.070312 C 33.414062 11.027344 33.546875 11.027344 33.636719 10.980469 C 33.726562 10.980469 33.863281 10.9375 33.953125 10.9375 C 34.042969 10.9375 34.175781 10.894531 34.265625 10.894531 L 34.445312 10.847656 L 34.625 10.804688 C 34.714844 10.804688 34.851562 10.757812 34.941406 10.757812 C 35.074219 10.757812 35.164062 10.714844 35.296875 10.714844 C 35.386719 10.714844 35.566406 10.667969 35.65625 10.667969 C 35.746094 10.667969 35.792969 10.667969 35.882812 10.625 L 36.195312 10.625 C 36.332031 10.625 36.421875 10.625 36.554688 10.582031 L 36.734375 10.582031 C 36.734375 10.582031 36.78125 10.582031 36.734375 10.582031 L 36.871094 10.582031 C 36.960938 10.582031 37.09375 10.582031 37.183594 10.582031 C 37.585938 10.582031 37.992188 10.582031 38.394531 10.582031 C 39.203125 10.625 40.011719 10.714844 40.773438 10.847656 C 42.300781 11.117188 43.78125 11.605469 45.082031 12.277344 C 46.382812 12.902344 47.59375 13.707031 48.582031 14.554688 C 48.628906 14.597656 48.71875 14.644531 48.761719 14.730469 C 48.808594 14.777344 48.898438 14.820312 48.941406 14.910156 C 49.074219 15 49.164062 15.132812 49.300781 15.222656 C 49.433594 15.3125 49.523438 15.445312 49.660156 15.535156 C 49.75 15.667969 49.882812 15.757812 49.972656 15.894531 C 50.421875 16.339844 50.828125 16.832031 51.183594 17.277344 C 51.902344 18.214844 52.488281 19.152344 52.9375 20.042969 C 52.980469 20.089844 52.980469 20.132812 53.027344 20.222656 C 53.070312 20.269531 53.070312 20.3125 53.113281 20.402344 C 53.160156 20.492188 53.203125 20.625 53.292969 20.714844 C 53.339844 20.804688 53.382812 20.9375 53.429688 21.027344 C 53.472656 21.117188 53.519531 21.25 53.5625 21.339844 C 53.742188 21.742188 53.878906 22.144531 54.011719 22.542969 C 54.238281 23.167969 54.371094 23.707031 54.507812 24.152344 C 54.550781 24.332031 54.730469 24.464844 54.910156 24.464844 C 55.132812 24.464844 55.269531 24.285156 55.269531 24.0625 C 55.222656 23.527344 55.222656 22.945312 55.179688 22.277344 Z M 55.179688 22.277344 "/>
</g>
</svg>
