<?xml version="1.0" encoding="UTF-8"?>
<svg xmlns="http://www.w3.org/2000/svg" xmlns:xlink="http://www.w3.org/1999/xlink" width="64px" height="64px" viewBox="0 0 64 69" version="1.1">
<defs>
<filter id="alpha" filterUnits="objectBoundingBox" x="0%" y="0%" width="100%" height="100%">
  <feColorMatrix type="matrix" in="SourceGraphic" values="0 0 0 0 1 0 0 0 0 1 0 0 0 0 1 0 0 0 1 0"/>
</filter>
<mask id="mask0">
  <g filter="url(#alpha)">
<rect x="0" y="0" width="64" height="69" style="fill:rgb(0%,0%,0%);fill-opacity:0.85098;stroke:none;"/>
  </g>
</mask>
<clipPath id="clip1">
  <rect x="0" y="0" width="64" height="69"/>
</clipPath>
<g id="surface5" clip-path="url(#clip1)">
<path style=" stroke:none;fill-rule:nonzero;fill:rgb(6.27451%,6.27451%,6.27451%);fill-opacity:1;" d="M 47.960938 0.0273438 C 48.730469 0.015625 49.5 0.00390625 50.273438 0 C 50.285156 0.425781 50.300781 1.273438 50.3125 1.699219 C 49.523438 1.699219 48.734375 1.691406 47.949219 1.691406 C 47.949219 1.277344 47.960938 0.449219 47.960938 0.0273438 Z M 47.960938 0.0273438 "/>
</g>
</defs>
<g id="surface1">
<use xlink:href="#surface5" mask="url(#mask0)"/>
<path style=" stroke:none;fill-rule:nonzero;fill:rgb(7.45098%,7.45098%,7.45098%);fill-opacity:1;" d="M 1.152344 0.375 C 2.558594 0.386719 3.972656 0.394531 5.390625 0.398438 C 5.269531 2.910156 5.765625 5.519531 5.050781 7.964844 C 4.132812 9.722656 1.839844 9.378906 0.191406 9.410156 C 0.125 8.855469 0.0585938 8.296875 0 7.742188 C 0.949219 7.664062 1.976562 7.851562 2.847656 7.363281 C 3.414062 5.621094 3.160156 3.761719 3.019531 1.96875 C 2.535156 1.980469 1.578125 1.992188 1.097656 1.996094 C 1.113281 1.59375 1.132812 0.78125 1.152344 0.375 Z M 1.152344 0.375 "/>
<path style=" stroke:none;fill-rule:nonzero;fill:rgb(7.45098%,7.45098%,7.45098%);fill-opacity:1;" d="M 29.363281 1.066406 C 31.023438 -0.214844 33.207031 0.3125 35.050781 0.808594 C 35.046875 1.292969 35.042969 2.265625 35.042969 2.75 C 33.609375 2.179688 30.894531 0.929688 30.53125 3.285156 C 31.886719 3.695312 33.316406 3.9375 34.542969 4.667969 C 35.847656 5.726562 35.480469 8.132812 33.976562 8.859375 C 32.269531 9.871094 30.242188 9.316406 28.4375 8.953125 C 28.335938 8.203125 28.230469 7.460938 28.136719 6.714844 C 29.65625 7.378906 32.730469 8.957031 33.183594 6.410156 C 31.660156 5.835938 29.765625 5.753906 28.65625 4.445312 C 28.167969 3.328125 28.253906 1.78125 29.363281 1.066406 Z M 29.363281 1.066406 "/>
<path style=" stroke:none;fill-rule:nonzero;fill:rgb(7.45098%,7.45098%,7.45098%);fill-opacity:1;" d="M 59.660156 0.6875 C 60.300781 0.6875 60.949219 0.6875 61.601562 0.6875 C 61.617188 1.304688 61.636719 1.921875 61.664062 2.539062 C 62.160156 2.542969 63.152344 2.554688 63.648438 2.558594 C 63.660156 2.9375 63.675781 3.683594 63.6875 4.054688 C 63.183594 4.050781 62.175781 4.039062 61.671875 4.027344 C 61.699219 5.277344 61.375 6.644531 62.003906 7.796875 C 62.476562 7.84375 63.417969 7.9375 63.890625 7.984375 C 63.839844 10.285156 61.210938 9.242188 59.820312 8.882812 C 59.691406 7.480469 59.632812 6.074219 59.632812 4.667969 C 59.277344 4.171875 58.921875 3.667969 58.570312 3.171875 C 58.839844 2.925781 59.375 2.433594 59.644531 2.1875 C 59.648438 1.8125 59.65625 1.058594 59.660156 0.6875 Z M 59.660156 0.6875 "/>
<path style=" stroke:none;fill-rule:nonzero;fill:rgb(7.45098%,7.45098%,7.45098%);fill-opacity:1;" d="M 7.101562 2.609375 C 8.886719 2.515625 11.386719 1.855469 12.507812 3.695312 C 12.910156 5.519531 12.65625 7.414062 12.71875 9.269531 C 11.917969 9.199219 11.117188 9.121094 10.324219 9.050781 C 9.414062 9.128906 8.34375 9.796875 7.507812 9.199219 C 6.113281 8.53125 6.09375 6.074219 7.554688 5.480469 C 8.621094 5.042969 9.78125 4.96875 10.894531 4.707031 C 9.835938 3.613281 8.335938 4.027344 7.003906 4.171875 C 7.03125 3.777344 7.078125 2.996094 7.101562 2.609375 M 8.84375 6.359375 C 8.785156 6.890625 8.730469 7.417969 8.679688 7.953125 C 9.289062 7.921875 9.894531 7.894531 10.507812 7.859375 C 10.554688 7.289062 10.601562 6.714844 10.652344 6.140625 C 10.042969 6.210938 9.441406 6.289062 8.84375 6.359375 Z M 8.84375 6.359375 "/>
<path style=" stroke:none;fill-rule:nonzero;fill:rgb(7.45098%,7.45098%,7.45098%);fill-opacity:1;" d="M 13.535156 2.417969 C 14.058594 2.523438 15.117188 2.730469 15.644531 2.832031 C 16.195312 4.097656 16.574219 5.429688 17.113281 6.707031 C 17.5625 5.34375 17.976562 3.964844 18.382812 2.582031 C 18.910156 2.570312 19.96875 2.554688 20.492188 2.542969 C 19.746094 4.886719 18.914062 7.199219 17.984375 9.480469 C 17.261719 9.390625 16.546875 9.238281 15.859375 9.035156 C 14.859375 6.917969 14.203125 4.65625 13.535156 2.417969 Z M 13.535156 2.417969 "/>
<path style=" stroke:none;fill-rule:nonzero;fill:rgb(7.45098%,7.45098%,7.45098%);fill-opacity:1;" d="M 21.171875 4.160156 C 21.324219 3.640625 21.5 3.121094 21.691406 2.613281 C 23.390625 2.371094 25.691406 2.007812 26.859375 3.59375 C 27.261719 5.480469 27.015625 7.433594 27.050781 9.351562 C 26.246094 9.242188 25.445312 9.132812 24.648438 9.023438 C 23.210938 9.78125 20.816406 9.507812 20.847656 7.496094 C 20.574219 5.105469 23.574219 5.070312 25.199219 4.753906 C 24.21875 3.445312 22.519531 4.136719 21.171875 4.160156 M 23.15625 6.410156 C 23.097656 6.898438 23.042969 7.398438 22.984375 7.886719 C 23.589844 7.90625 24.191406 7.921875 24.800781 7.933594 C 24.855469 7.324219 24.910156 6.726562 24.964844 6.121094 C 24.363281 6.210938 23.757812 6.308594 23.15625 6.410156 Z M 23.15625 6.410156 "/>
<path style=" stroke:none;fill-rule:nonzero;fill:rgb(7.45098%,7.45098%,7.45098%);fill-opacity:1;" d="M 35.832031 5.945312 C 35.660156 2.976562 39.453125 1.417969 41.71875 3.003906 C 41.773438 3.421875 41.878906 4.269531 41.929688 4.6875 C 40.886719 4.363281 39.820312 3.621094 38.703125 4.121094 C 37.519531 5.246094 37.765625 8.101562 39.769531 7.933594 C 40.324219 7.757812 41.425781 7.40625 41.976562 7.234375 C 41.878906 7.703125 41.6875 8.640625 41.59375 9.105469 C 39.222656 10.21875 35.644531 8.902344 35.832031 5.945312 Z M 35.832031 5.945312 "/>
<path style=" stroke:none;fill-rule:nonzero;fill:rgb(7.45098%,7.45098%,7.45098%);fill-opacity:1;" d="M 42.839844 2.394531 C 43.660156 2.613281 44.5 2.832031 45.324219 3.066406 C 45.945312 2.84375 46.570312 2.625 47.199219 2.402344 C 47.226562 2.925781 47.292969 3.972656 47.324219 4.5 C 46.535156 4.535156 45.746094 4.574219 44.96875 4.613281 C 44.914062 6.179688 44.898438 7.742188 44.886719 9.308594 C 44.371094 9.3125 43.335938 9.316406 42.820312 9.324219 C 42.792969 7.015625 42.789062 4.707031 42.839844 2.394531 Z M 42.839844 2.394531 "/>
<path style=" stroke:none;fill-rule:nonzero;fill:rgb(7.45098%,7.45098%,7.45098%);fill-opacity:1;" d="M 51.746094 2.542969 C 53.261719 2.882812 54.785156 2.777344 56.289062 2.476562 C 58.652344 2.964844 58.707031 6.300781 57.808594 8.046875 C 57.0625 9.554688 55.238281 9.410156 53.832031 9.335938 C 53.839844 10.132812 53.851562 10.921875 53.863281 11.71875 C 53.335938 11.714844 52.273438 11.703125 51.742188 11.691406 C 51.742188 8.648438 51.738281 5.59375 51.746094 2.542969 M 53.886719 4.148438 C 53.863281 5.421875 53.851562 6.699219 53.863281 7.96875 C 54.542969 7.785156 55.417969 7.914062 55.933594 7.332031 C 56.316406 6.292969 56.015625 5.175781 55.941406 4.105469 C 55.253906 4.117188 54.570312 4.132812 53.886719 4.148438 Z M 53.886719 4.148438 "/>
<path style=" stroke:none;fill-rule:nonzero;fill:rgb(7.45098%,7.45098%,7.45098%);fill-opacity:1;" d="M 48.160156 2.558594 C 48.648438 2.558594 49.621094 2.558594 50.105469 2.558594 C 50.136719 4.816406 50.136719 7.0625 50.105469 9.316406 C 49.617188 9.316406 48.648438 9.316406 48.160156 9.316406 C 48.121094 7.070312 48.121094 4.816406 48.160156 2.558594 Z M 48.160156 2.558594 "/>
<path style=" stroke:none;fill-rule:nonzero;fill:rgb(83.921569%,72.941176%,19.607843%);fill-opacity:1;" d="M 7.5 13.703125 C 12.964844 13.472656 18.4375 13.765625 23.90625 13.675781 C 29.941406 13.484375 35.96875 13.640625 42.003906 13.664062 C 46.792969 13.675781 51.582031 13.640625 56.371094 13.679688 C 54.867188 30.238281 53.347656 46.792969 51.949219 63.359375 C 45.535156 65.179688 39.113281 66.96875 32.695312 68.777344 C 31.875 69.113281 31.03125 68.796875 30.242188 68.585938 C 24.140625 66.839844 18.042969 65.109375 11.933594 63.425781 C 10.34375 46.863281 8.847656 30.285156 7.5 13.703125 M 32.039062 18.019531 C 31.8125 26.1875 32.003906 34.351562 31.941406 42.519531 C 32 49.988281 31.832031 57.460938 32.027344 64.925781 C 37.417969 63.660156 42.738281 62.105469 48.058594 60.570312 C 49.398438 46.394531 50.703125 32.21875 51.820312 18.023438 C 45.226562 17.960938 38.628906 18.035156 32.039062 18.019531 M 25.179688 49.910156 C 22.011719 49.046875 18.882812 48.054688 15.671875 47.371094 C 15.578125 49.273438 15.609375 51.171875 15.832031 53.058594 C 20.53125 54.199219 25.132812 55.703125 29.839844 56.820312 C 29.875 46.007812 29.824219 35.1875 29.863281 24.375 C 28.328125 24.335938 26.792969 24.3125 25.261719 24.28125 C 25.085938 32.820312 25.25 41.367188 25.179688 49.910156 Z M 25.179688 49.910156 "/>
<path style=" stroke:none;fill-rule:nonzero;fill:rgb(100%,85.490196%,24.313725%);fill-opacity:1;" d="M 32.039062 18.019531 C 38.628906 18.035156 45.226562 17.960938 51.820312 18.023438 C 50.703125 32.21875 49.398438 46.394531 48.058594 60.570312 C 42.738281 62.105469 37.417969 63.660156 32.027344 64.925781 C 31.832031 57.460938 32 49.988281 31.941406 42.519531 C 32.003906 34.351562 31.8125 26.1875 32.039062 18.019531 M 33.886719 24.367188 C 33.90625 31.398438 33.914062 38.4375 33.886719 45.46875 C 37.105469 44.949219 40.316406 44.351562 43.527344 43.769531 C 43.480469 45.40625 43.414062 47.042969 43.34375 48.683594 C 40.214844 49.511719 37.089844 50.367188 33.945312 51.136719 C 33.894531 53.027344 33.890625 54.917969 33.90625 56.808594 C 37.867188 55.925781 41.769531 54.8125 45.703125 53.824219 C 46.195312 53.59375 47.144531 53.621094 47.101562 52.851562 C 47.578125 47.796875 47.875 42.722656 48.335938 37.65625 C 45.074219 37.921875 41.847656 38.46875 38.585938 38.691406 C 38.558594 35.820312 38.554688 32.949219 38.597656 30.078125 C 42.027344 30.078125 45.453125 30.078125 48.882812 30.082031 C 49.101562 28.167969 49.292969 26.246094 49.441406 24.324219 C 44.257812 24.347656 39.070312 24.277344 33.886719 24.367188 Z M 33.886719 24.367188 "/>
<path style=" stroke:none;fill-rule:nonzero;fill:rgb(92.156863%,92.156863%,92.156863%);fill-opacity:1;" d="M 25.179688 49.910156 C 25.25 41.367188 25.085938 32.820312 25.261719 24.28125 C 26.792969 24.3125 28.328125 24.335938 29.863281 24.375 C 29.824219 35.1875 29.875 46.007812 29.839844 56.820312 C 25.132812 55.703125 20.53125 54.199219 15.832031 53.058594 C 15.609375 51.171875 15.578125 49.273438 15.671875 47.371094 C 18.882812 48.054688 22.011719 49.046875 25.179688 49.910156 Z M 25.179688 49.910156 "/>
</g>
</svg>
