<?xml version="1.0" encoding="UTF-8"?>
<svg xmlns="http://www.w3.org/2000/svg" xmlns:xlink="http://www.w3.org/1999/xlink" width="64px" height="64px" viewBox="0 0 64 64" version="1.1">
<g id="surface1">
<path style=" stroke:none;fill-rule:nonzero;fill:rgb(100%,100%,100%);fill-opacity:1;" d="M 64 63.996094 C 64 64 64 64 63.996094 64 L 0.00390625 64 C 0 64 0 64 0 63.996094 L 0 0.00390625 C 0 0 0 0 0.00390625 0 L 64 0 C 64 0 64 0 64 0.00390625 Z M 64 63.996094 "/>
<path style=" stroke:none;fill-rule:nonzero;fill:rgb(81.568627%,0%,0%);fill-opacity:1;" d="M 62.933594 62.929688 C 62.933594 62.933594 62.933594 62.933594 62.929688 62.933594 L 1.070312 62.933594 C 1.066406 62.933594 1.066406 62.933594 1.066406 62.929688 L 1.066406 1.070312 C 1.066406 1.066406 1.066406 1.066406 1.070312 1.066406 L 62.929688 1.066406 C 62.933594 1.066406 62.933594 1.066406 62.933594 1.070312 Z M 62.933594 62.929688 "/>
<path style=" stroke:none;fill-rule:nonzero;fill:rgb(100%,100%,100%);fill-opacity:1;" d="M 17.957031 48.808594 C 17.957031 48.855469 17.984375 48.921875 18.015625 48.953125 L 19.074219 50.011719 C 19.109375 50.046875 19.171875 50.074219 19.21875 50.074219 L 22.84375 50.074219 C 22.890625 50.074219 22.953125 50.046875 22.988281 50.011719 L 24.046875 48.953125 C 24.078125 48.921875 24.105469 48.855469 24.105469 48.808594 L 24.105469 37.3125 C 24.105469 37.265625 24.132812 37.199219 24.167969 37.167969 L 28.773438 32.773438 C 28.804688 32.738281 28.855469 32.746094 28.878906 32.785156 L 40.511719 50.003906 C 40.539062 50.042969 40.597656 50.074219 40.644531 50.074219 L 45.777344 50.074219 C 45.824219 50.074219 45.882812 50.039062 45.902344 50 L 46.832031 48.195312 C 46.855469 48.152344 46.851562 48.085938 46.824219 48.050781 L 33.21875 28.328125 C 33.191406 28.289062 33.195312 28.230469 33.230469 28.199219 L 45.746094 15.742188 C 45.777344 15.710938 45.804688 15.644531 45.804688 15.597656 L 45.804688 15.367188 C 45.804688 15.320312 45.789062 15.246094 45.769531 15.203125 L 45.050781 13.542969 C 45.03125 13.503906 44.976562 13.46875 44.929688 13.46875 L 39.855469 13.46875 C 39.808594 13.46875 39.742188 13.496094 39.710938 13.527344 L 24.167969 29.128906 C 24.132812 29.164062 24.105469 29.152344 24.105469 29.105469 L 24.105469 14.792969 C 24.105469 14.746094 24.082031 14.679688 24.050781 14.644531 L 23.011719 13.53125 C 22.976562 13.496094 22.914062 13.46875 22.867188 13.46875 L 19.21875 13.46875 C 19.171875 13.46875 19.109375 13.496094 19.074219 13.53125 L 18.011719 14.679688 C 17.980469 14.710938 17.953125 14.777344 17.953125 14.824219 L 17.953125 48.808594 Z M 17.957031 48.808594 "/>
</g>
</svg>
