<?xml version="1.0" encoding="UTF-8"?>
<svg xmlns="http://www.w3.org/2000/svg" xmlns:xlink="http://www.w3.org/1999/xlink" width="64px" height="64px" viewBox="0 0 64 64" version="1.1">
<g id="surface1">
<path style=" stroke:none;fill-rule:nonzero;fill:rgb(0%,0%,0%);fill-opacity:1;" d="M 24 3.28125 C 23.996094 3.28125 23.992188 3.28125 23.988281 3.28125 C 21.042969 3.28125 18.605469 4.796875 17.511719 7.28125 L 16.550781 7.28125 C 16.542969 7.28125 16.539062 7.28125 16.53125 7.28125 C 13.988281 7.28125 11.574219 8.128906 9.734375 9.679688 C 7.785156 11.316406 6.707031 13.578125 6.703125 16.042969 C 6.703125 18.03125 7.757812 20.234375 8.753906 21.625 C 4.308594 23.164062 1.285156 26.890625 1.28125 31 C 1.273438 35.09375 4.292969 38.820312 8.746094 40.375 C 7.734375 41.757812 6.660156 43.949219 6.65625 45.90625 C 6.652344 50.757812 11.089844 54.710938 16.550781 54.722656 L 17.511719 54.722656 C 18.597656 57.199219 21.039062 58.71875 24 58.722656 C 24.003906 58.722656 24.007812 58.722656 24.015625 58.722656 C 27.957031 58.722656 30.714844 55.960938 30.722656 52.003906 L 30.722656 10 C 30.726562 6.050781 27.964844 3.285156 24 3.28125 Z M 24 37.28125 C 23.292969 37.28125 22.71875 36.707031 22.71875 36 C 22.71875 35.292969 23.292969 34.71875 24 34.71875 C 24.707031 34.71875 25.28125 35.292969 25.28125 36 C 25.28125 36.707031 24.707031 37.28125 24 37.28125 Z M 29.28125 27.28125 L 24.71875 27.28125 L 24.71875 14.609375 C 25.871094 14.292969 26.71875 13.246094 26.71875 12 C 26.71875 10.5 25.5 9.28125 24 9.28125 C 22.5 9.28125 21.28125 10.5 21.28125 12 C 21.28125 13.25 22.128906 14.292969 23.28125 14.609375 L 23.28125 27.28125 L 20 27.28125 C 19.996094 27.28125 19.996094 27.28125 19.996094 27.28125 C 18.398438 27.28125 17.28125 28.398438 17.28125 30 L 17.28125 31.28125 L 12.609375 31.28125 C 12.292969 30.128906 11.246094 29.28125 10 29.28125 C 8.5 29.28125 7.28125 30.5 7.28125 32 C 7.28125 33.5 8.5 34.71875 10 34.71875 C 11.25 34.71875 12.292969 33.867188 12.609375 32.71875 L 17.28125 32.71875 L 17.28125 44.386719 C 16.128906 44.707031 15.28125 45.75 15.28125 47 C 15.28125 48.5 16.5 49.71875 18 49.71875 C 19.5 49.71875 20.71875 48.5 20.71875 47 C 20.71875 45.75 19.871094 44.707031 18.71875 44.386719 L 18.71875 30 C 18.722656 29.199219 19.199219 28.71875 19.996094 28.71875 L 29.28125 28.71875 L 29.28125 51.996094 C 29.273438 54.90625 27.464844 56.914062 24.71875 57.214844 L 24.71875 38.609375 C 25.871094 38.292969 26.71875 37.246094 26.71875 35.996094 C 26.71875 34.496094 25.5 33.277344 24 33.277344 C 22.5 33.277344 21.28125 34.496094 21.28125 35.996094 C 21.28125 37.246094 22.128906 38.292969 23.28125 38.609375 L 23.28125 57.230469 C 21.074219 57.003906 19.378906 55.746094 18.679688 53.761719 C 18.578125 53.472656 18.304688 53.28125 18 53.28125 L 16.550781 53.28125 C 12.480469 53.273438 8.09375 50.453125 8.097656 45.90625 C 8.101562 43.976562 9.523438 41.488281 10.507812 40.511719 C 10.691406 40.328125 10.761719 40.058594 10.695312 39.808594 C 10.625 39.558594 10.429688 39.367188 10.179688 39.300781 C 5.78125 38.171875 2.714844 34.757812 2.71875 31 C 2.726562 27.246094 5.765625 23.855469 10.109375 22.71875 L 15.390625 22.71875 C 15.707031 23.867188 16.753906 24.71875 18 24.71875 C 19.5 24.71875 20.71875 23.496094 20.71875 21.996094 C 20.71875 20.496094 19.5 19.28125 18 19.28125 C 16.75 19.28125 15.707031 20.128906 15.390625 21.28125 L 10.324219 21.28125 C 9.371094 20.199219 8.140625 17.898438 8.140625 16.042969 C 8.144531 14.011719 9.039062 12.144531 10.664062 10.78125 C 12.222656 9.46875 14.363281 8.71875 16.535156 8.71875 C 16.539062 8.71875 16.546875 8.71875 16.550781 8.71875 L 18 8.71875 C 18.304688 8.71875 18.574219 8.527344 18.679688 8.242188 C 19.460938 6.035156 21.445312 4.71875 23.988281 4.71875 C 23.992188 4.71875 23.992188 4.71875 23.996094 4.71875 C 27.164062 4.726562 29.285156 6.847656 29.28125 10 Z M 24 13.28125 C 23.292969 13.28125 22.71875 12.707031 22.71875 12 C 22.71875 11.292969 23.292969 10.71875 24 10.71875 C 24.707031 10.71875 25.28125 11.292969 25.28125 12 C 25.28125 12.707031 24.707031 13.28125 24 13.28125 Z M 18 45.71875 C 18.707031 45.71875 19.28125 46.292969 19.28125 47 C 19.28125 47.707031 18.707031 48.28125 18 48.28125 C 17.292969 48.28125 16.71875 47.707031 16.71875 47 C 16.71875 46.292969 17.292969 45.71875 18 45.71875 Z M 11.28125 32 C 11.28125 32.707031 10.707031 33.28125 10 33.28125 C 9.292969 33.28125 8.71875 32.707031 8.71875 32 C 8.71875 31.292969 9.292969 30.71875 10 30.71875 C 10.707031 30.71875 11.28125 31.292969 11.28125 32 Z M 16.71875 22 C 16.71875 21.292969 17.292969 20.71875 18 20.71875 C 18.707031 20.71875 19.28125 21.292969 19.28125 22 C 19.28125 22.707031 18.707031 23.28125 18 23.28125 C 17.292969 23.28125 16.71875 22.707031 16.71875 22 Z M 62.71875 31 C 62.722656 26.90625 59.703125 23.183594 55.253906 21.625 C 56.265625 20.242188 57.339844 18.050781 57.34375 16.09375 C 57.347656 13.628906 56.265625 11.363281 54.292969 9.707031 C 52.457031 8.164062 49.964844 7.28125 47.449219 7.277344 L 46.488281 7.277344 C 45.402344 4.800781 42.960938 3.28125 40.003906 3.277344 C 39.996094 3.277344 39.992188 3.277344 39.988281 3.277344 C 38.042969 3.277344 36.371094 3.925781 35.152344 5.144531 C 33.929688 6.371094 33.285156 8.046875 33.28125 10 L 33.28125 51.996094 C 33.273438 55.949219 36.035156 58.710938 39.996094 58.71875 C 40.003906 58.71875 40.007812 58.71875 40.011719 58.71875 C 42.957031 58.71875 45.390625 57.199219 46.488281 54.71875 L 47.445312 54.71875 C 47.453125 54.71875 47.460938 54.71875 47.464844 54.71875 C 50.007812 54.71875 52.421875 53.867188 54.261719 52.320312 C 56.214844 50.683594 57.292969 48.421875 57.296875 45.957031 C 57.296875 43.96875 56.242188 41.761719 55.246094 40.375 C 59.695312 38.835938 62.714844 35.109375 62.71875 31 Z M 40 24.71875 C 40.707031 24.71875 41.28125 25.292969 41.28125 26 C 41.28125 26.707031 40.707031 27.28125 40 27.28125 C 39.292969 27.28125 38.71875 26.707031 38.71875 26 C 38.71875 25.292969 39.292969 24.71875 40 24.71875 Z M 53.890625 39.28125 L 48.609375 39.28125 C 48.292969 38.128906 47.246094 37.28125 45.996094 37.28125 C 44.496094 37.28125 43.277344 38.5 43.277344 40 C 43.277344 41.5 44.496094 42.71875 45.996094 42.71875 C 47.246094 42.71875 48.292969 41.871094 48.609375 40.71875 L 53.675781 40.71875 C 54.628906 41.800781 55.859375 44.101562 55.855469 45.957031 C 55.851562 47.988281 54.957031 49.855469 53.335938 51.21875 C 51.773438 52.53125 49.605469 53.238281 47.449219 53.277344 L 46 53.277344 C 45.695312 53.277344 45.425781 53.472656 45.320312 53.757812 C 44.535156 55.964844 42.550781 57.277344 40.011719 57.277344 C 40.007812 57.277344 40.003906 57.277344 40.003906 57.277344 C 38.441406 57.277344 37.113281 56.773438 36.164062 55.828125 C 35.214844 54.882812 34.714844 53.558594 34.71875 52 L 34.71875 34.71875 L 39.277344 34.71875 L 39.277344 47.386719 C 38.128906 47.707031 37.277344 48.75 37.277344 50 C 37.277344 51.5 38.496094 52.71875 39.996094 52.71875 C 41.496094 52.71875 42.71875 51.5 42.71875 50 C 42.71875 48.753906 41.867188 47.707031 40.71875 47.386719 L 40.71875 34.71875 L 43.996094 34.71875 C 43.996094 34.71875 44 34.71875 44.003906 34.71875 C 45.601562 34.71875 46.714844 33.601562 46.71875 32 L 46.71875 30.71875 L 51.386719 30.71875 C 51.703125 31.871094 52.746094 32.71875 53.996094 32.71875 C 55.496094 32.71875 56.71875 31.5 56.71875 30 C 56.71875 28.5 55.496094 27.28125 53.996094 27.28125 C 52.746094 27.28125 51.703125 28.128906 51.386719 29.28125 L 46.71875 29.28125 L 46.71875 17.609375 C 47.871094 17.292969 48.71875 16.246094 48.71875 15 C 48.71875 13.5 47.5 12.28125 46 12.28125 C 44.5 12.28125 43.28125 13.5 43.28125 15 C 43.28125 16.246094 44.128906 17.292969 45.28125 17.609375 L 45.28125 32 C 45.28125 32.800781 44.804688 33.28125 44.003906 33.28125 C 44.003906 33.28125 44.003906 33.28125 44 33.28125 L 34.71875 33.28125 L 34.71875 10 C 34.722656 8.4375 35.222656 7.109375 36.171875 6.164062 C 36.964844 5.367188 38.035156 4.910156 39.28125 4.777344 L 39.28125 23.386719 C 38.128906 23.707031 37.28125 24.75 37.28125 25.996094 C 37.28125 27.496094 38.5 28.71875 40 28.71875 C 41.5 28.71875 42.71875 27.496094 42.71875 25.996094 C 42.71875 24.75 41.871094 23.707031 40.71875 23.386719 L 40.71875 4.769531 C 42.925781 4.996094 44.621094 6.253906 45.320312 8.238281 C 45.421875 8.527344 45.695312 8.71875 46 8.71875 L 47.449219 8.71875 C 49.632812 8.722656 51.789062 9.484375 53.367188 10.808594 C 55.007812 12.1875 55.90625 14.0625 55.902344 16.09375 C 55.902344 18.023438 54.476562 20.511719 53.492188 21.488281 C 53.308594 21.671875 53.238281 21.941406 53.304688 22.191406 C 53.375 22.441406 53.570312 22.632812 53.820312 22.699219 C 58.21875 23.832031 61.285156 27.246094 61.28125 31 C 61.277344 34.746094 58.238281 38.140625 53.890625 39.28125 Z M 47.28125 40 C 47.28125 40.707031 46.707031 41.28125 46 41.28125 C 45.292969 41.28125 44.71875 40.707031 44.71875 40 C 44.71875 39.292969 45.292969 38.71875 46 38.71875 C 46.707031 38.71875 47.28125 39.292969 47.28125 40 Z M 40 48.71875 C 40.707031 48.71875 41.28125 49.292969 41.28125 50 C 41.28125 50.707031 40.707031 51.28125 40 51.28125 C 39.292969 51.28125 38.71875 50.707031 38.71875 50 C 38.71875 49.292969 39.292969 48.71875 40 48.71875 Z M 46 16.28125 C 45.292969 16.28125 44.71875 15.707031 44.71875 15 C 44.71875 14.292969 45.292969 13.71875 46 13.71875 C 46.707031 13.71875 47.28125 14.292969 47.28125 15 C 47.28125 15.707031 46.707031 16.28125 46 16.28125 Z M 52.71875 30 C 52.71875 29.292969 53.292969 28.71875 54 28.71875 C 54.707031 28.71875 55.28125 29.292969 55.28125 30 C 55.28125 30.707031 54.707031 31.28125 54 31.28125 C 53.292969 31.28125 52.71875 30.707031 52.71875 30 Z M 52.71875 30 "/>
</g>
</svg>
