<?xml version="1.0" encoding="UTF-8"?>
<svg xmlns="http://www.w3.org/2000/svg" xmlns:xlink="http://www.w3.org/1999/xlink" width="64px" height="64px" viewBox="0 0 64 32" version="1.1">
<g id="surface1">
<path style=" stroke:none;fill-rule:nonzero;fill:rgb(34.901961%,58.823529%,21.176471%);fill-opacity:1;" d="M 8.613281 2.75 L 9.191406 3.84375 C 9.320312 4.039062 9.46875 4.222656 9.632812 4.386719 C 10.121094 4.875 10.582031 5.386719 10.996094 5.933594 C 11.984375 7.226562 12.648438 8.664062 13.125 10.21875 C 13.410156 11.171875 13.5625 12.144531 13.574219 13.128906 C 13.621094 16.074219 12.613281 18.605469 10.570312 20.707031 C 10.238281 21.039062 9.882812 21.347656 9.5 21.621094 C 9.296875 21.621094 9.203125 21.460938 9.121094 21.324219 C 8.960938 21.058594 8.871094 20.765625 8.824219 20.46875 C 8.753906 20.113281 8.703125 19.757812 8.730469 19.390625 L 8.730469 19.222656 C 8.71875 19.1875 8.539062 2.832031 8.609375 2.75 Z M 8.613281 2.75 "/>
<path style=" stroke:none;fill-rule:nonzero;fill:rgb(42.352941%,67.45098%,28.235294%);fill-opacity:1;" d="M 8.613281 2.714844 C 8.585938 2.664062 8.5625 2.703125 8.539062 2.726562 C 8.550781 2.960938 8.46875 3.175781 8.335938 3.378906 C 8.195312 3.582031 8.003906 3.734375 7.816406 3.902344 C 6.757812 4.816406 5.925781 5.921875 5.261719 7.15625 C 4.382812 8.820312 3.917969 10.601562 3.789062 12.476562 C 3.730469 13.152344 4.003906 15.542969 4.21875 16.230469 C 4.796875 18.058594 5.84375 19.589844 7.203125 20.921875 C 7.535156 21.242188 7.894531 21.539062 8.261719 21.824219 C 8.367188 21.824219 8.378906 21.730469 8.402344 21.65625 C 8.449219 21.503906 8.484375 21.351562 8.511719 21.195312 C 8.617188 20.601562 8.675781 20.007812 8.746094 19.414062 L 8.617188 2.714844 Z M 8.613281 2.714844 "/>
<path style=" stroke:none;fill-rule:nonzero;fill:rgb(76.078431%,74.901961%,74.901961%);fill-opacity:1;" d="M 9.195312 22.347656 C 9.21875 22.074219 9.355469 21.847656 9.492188 21.621094 C 9.347656 21.5625 9.242188 21.445312 9.160156 21.3125 C 9.085938 21.195312 9.027344 21.046875 8.980469 20.921875 C 8.8125 20.421875 8.777344 19.898438 8.730469 19.390625 L 8.730469 19.078125 C 8.671875 19.128906 8.660156 19.53125 8.660156 19.589844 C 8.625 20.136719 8.554688 20.671875 8.445312 21.195312 C 8.410156 21.40625 8.386719 21.621094 8.257812 21.8125 C 8.257812 21.835938 8.257812 21.859375 8.269531 21.894531 C 8.480469 22.523438 8.542969 23.164062 8.578125 23.820312 L 8.578125 24.054688 C 8.578125 24.339844 8.566406 24.28125 8.804688 24.375 C 8.898438 24.410156 9.007812 24.425781 9.101562 24.496094 C 9.171875 24.496094 9.183594 24.4375 9.183594 24.386719 L 9.148438 23.996094 L 9.148438 22.902344 C 9.136719 22.714844 9.171875 22.523438 9.195312 22.34375 Z M 9.195312 22.347656 "/>
<path style=" stroke:none;fill-rule:nonzero;fill:rgb(27.843137%,27.843137%,29.019608%);fill-opacity:1;" d="M 18.214844 17.378906 L 18.214844 18.511719 C 18.210938 18.554688 18.214844 18.601562 18.222656 18.644531 C 18.234375 18.777344 18.316406 18.859375 18.4375 18.898438 C 18.550781 18.925781 18.667969 18.949219 18.78125 18.964844 C 18.847656 18.972656 18.871094 19 18.878906 19.074219 C 18.886719 19.328125 18.863281 19.355469 18.617188 19.339844 C 18.046875 19.3125 17.472656 19.304688 16.898438 19.339844 L 16.84375 19.339844 C 16.667969 19.347656 16.652344 19.332031 16.652344 19.15625 C 16.652344 19.125 16.660156 19.089844 16.660156 19.058594 C 16.660156 19.003906 16.695312 18.976562 16.75 18.976562 C 16.867188 18.960938 16.980469 18.933594 17.09375 18.910156 C 17.25 18.871094 17.335938 18.777344 17.351562 18.621094 C 17.375 18.449219 17.375 18.269531 17.375 18.097656 L 17.382812 16.105469 C 17.386719 15.984375 17.324219 15.875 17.21875 15.820312 C 17.082031 15.746094 16.941406 15.6875 16.792969 15.640625 C 16.75 15.628906 16.703125 15.621094 16.667969 15.597656 C 16.558594 15.546875 16.554688 15.449219 16.660156 15.390625 C 16.695312 15.367188 16.742188 15.351562 16.785156 15.34375 C 17.238281 15.277344 17.679688 15.164062 18.109375 15.007812 C 18.199219 14.980469 18.222656 14.988281 18.230469 15.078125 C 18.238281 15.128906 18.230469 15.195312 18.222656 15.246094 C 18.207031 15.34375 18.207031 15.441406 18.207031 15.53125 C 18.207031 15.566406 18.214844 15.605469 18.253906 15.628906 C 18.289062 15.648438 18.328125 15.628906 18.359375 15.605469 C 18.519531 15.484375 18.675781 15.375 18.84375 15.277344 C 19.089844 15.144531 19.351562 15.027344 19.632812 14.988281 C 19.976562 14.945312 20.273438 15.035156 20.535156 15.257812 C 20.644531 15.351562 20.738281 15.464844 20.816406 15.582031 C 20.894531 15.691406 20.898438 15.695312 20.996094 15.621094 C 21.28125 15.414062 21.578125 15.226562 21.898438 15.09375 C 22.230469 14.949219 22.574219 14.929688 22.917969 15.046875 C 23.265625 15.175781 23.503906 15.417969 23.648438 15.753906 C 23.765625 16.023438 23.816406 16.300781 23.816406 16.589844 L 23.816406 18.582031 C 23.816406 18.714844 23.871094 18.800781 24.003906 18.867188 C 24.144531 18.921875 24.300781 18.949219 24.449219 18.976562 C 24.546875 19 24.546875 19 24.546875 19.097656 C 24.53125 19.34375 24.511719 19.355469 24.273438 19.34375 C 23.675781 19.308594 23.074219 19.308594 22.476562 19.34375 C 22.359375 19.351562 22.359375 19.351562 22.351562 19.230469 L 22.351562 19.195312 C 22.34375 18.992188 22.34375 18.992188 22.539062 18.949219 L 22.730469 18.894531 C 22.867188 18.863281 22.960938 18.746094 22.960938 18.605469 L 22.984375 18.046875 L 22.96875 16.589844 C 22.964844 16.457031 22.9375 16.332031 22.886719 16.210938 C 22.703125 15.753906 22.292969 15.59375 21.898438 15.636719 C 21.601562 15.667969 21.339844 15.785156 21.09375 15.957031 C 21.042969 15.992188 21.003906 16.039062 21.011719 16.113281 C 21.078125 16.589844 21.035156 17.066406 21.042969 17.542969 L 21.042969 18.578125 C 21.042969 18.761719 21.117188 18.851562 21.296875 18.898438 L 21.640625 18.972656 C 21.691406 18.980469 21.71875 19 21.71875 19.0625 L 21.71875 19.117188 C 21.710938 19.324219 21.699219 19.332031 21.488281 19.332031 C 20.894531 19.300781 20.296875 19.308594 19.710938 19.332031 C 19.507812 19.339844 19.492188 19.316406 19.503906 19.113281 C 19.511719 18.992188 19.523438 18.988281 19.636719 18.964844 L 19.882812 18.921875 C 20.097656 18.875 20.179688 18.792969 20.195312 18.5625 L 20.214844 18.0625 L 20.199219 16.566406 C 20.1875 16.382812 20.148438 16.203125 20.042969 16.03125 C 19.894531 15.757812 19.664062 15.617188 19.34375 15.601562 C 19.023438 15.578125 18.742188 15.695312 18.472656 15.84375 C 18.289062 15.953125 18.207031 16.082031 18.21875 16.300781 L 18.21875 17.386719 Z M 32.234375 17.425781 L 32.234375 18.472656 C 32.238281 18.546875 32.242188 18.625 32.25 18.699219 C 32.257812 18.800781 32.328125 18.882812 32.429688 18.90625 C 32.558594 18.941406 32.691406 18.964844 32.824219 18.972656 C 32.898438 18.980469 32.914062 19.011719 32.921875 19.070312 L 32.921875 19.121094 C 32.914062 19.382812 32.882812 19.414062 32.628906 19.398438 C 32.0625 19.359375 31.5 19.367188 30.933594 19.398438 L 30.714844 19.40625 C 30.671875 19.40625 30.660156 19.382812 30.648438 19.351562 C 30.625 19.25 30.625 19.144531 30.648438 19.039062 C 30.65625 18.996094 30.683594 18.984375 30.730469 18.972656 C 30.839844 18.957031 30.929688 18.9375 31.035156 18.917969 C 31.222656 18.875 31.289062 18.800781 31.296875 18.605469 L 31.316406 17.980469 L 31.316406 16.148438 C 31.316406 16.015625 31.265625 15.933594 31.144531 15.875 C 31.011719 15.800781 30.871094 15.75 30.722656 15.695312 C 30.675781 15.679688 30.632812 15.667969 30.59375 15.644531 C 30.496094 15.578125 30.484375 15.480469 30.578125 15.40625 C 30.621094 15.371094 30.675781 15.351562 30.730469 15.347656 C 31.207031 15.269531 31.667969 15.167969 32.113281 14.988281 C 32.164062 14.96875 32.1875 14.980469 32.210938 15.027344 C 32.230469 15.070312 32.238281 15.121094 32.230469 15.175781 L 32.210938 15.523438 C 32.210938 15.570312 32.1875 15.632812 32.226562 15.648438 C 32.269531 15.679688 32.300781 15.613281 32.335938 15.597656 C 32.554688 15.410156 32.796875 15.257812 33.058594 15.132812 C 33.289062 15.027344 33.527344 14.957031 33.796875 14.972656 C 34.292969 15 34.652344 15.253906 34.882812 15.691406 C 35 15.925781 35.054688 16.175781 35.074219 16.4375 L 35.097656 16.980469 L 35.105469 18.628906 C 35.113281 18.753906 35.15625 18.835938 35.28125 18.878906 C 35.414062 18.925781 35.546875 18.957031 35.683594 18.976562 C 35.804688 18.992188 35.8125 19.015625 35.820312 19.125 L 35.820312 19.164062 C 35.804688 19.417969 35.789062 19.421875 35.535156 19.40625 C 34.980469 19.378906 34.425781 19.378906 33.867188 19.40625 C 33.792969 19.414062 33.71875 19.40625 33.652344 19.414062 C 33.605469 19.414062 33.578125 19.40625 33.570312 19.363281 C 33.554688 19.265625 33.539062 19.171875 33.5625 19.066406 C 33.570312 19.019531 33.589844 19 33.644531 18.992188 L 33.988281 18.9375 C 34.105469 18.90625 34.171875 18.828125 34.1875 18.71875 L 34.203125 18.511719 L 34.195312 16.953125 C 34.195312 16.777344 34.1875 16.597656 34.148438 16.417969 C 34.0625 16.039062 33.769531 15.765625 33.378906 15.726562 C 33.035156 15.691406 32.722656 15.78125 32.4375 15.964844 C 32.296875 16.054688 32.238281 16.179688 32.238281 16.335938 L 32.238281 17.460938 C 32.238281 17.4375 32.238281 17.4375 32.246094 17.4375 Z M 32.234375 17.425781 "/>
<path style=" stroke:none;fill-rule:nonzero;fill:rgb(76.078431%,74.901961%,74.901961%);fill-opacity:1;" d="M 54.035156 15.316406 C 53.953125 14.773438 53.75 14.289062 53.402344 13.867188 C 53.097656 13.492188 52.703125 13.199219 52.253906 13.019531 C 51.785156 12.824219 51.285156 12.765625 50.78125 12.75 C 50.570312 12.742188 47.730469 12.789062 47.519531 12.75 C 47.46875 12.742188 47.429688 12.757812 47.402344 12.800781 C 47.363281 12.855469 47.328125 12.914062 47.304688 12.972656 C 47.214844 13.175781 47.214844 13.160156 47.429688 13.1875 C 47.609375 13.21875 47.78125 13.234375 47.953125 13.285156 C 48.109375 13.339844 48.21875 13.429688 48.257812 13.597656 C 48.269531 13.679688 48.285156 16.300781 48.285156 17.519531 L 48.257812 18.390625 C 48.25 18.460938 48.242188 18.527344 48.21875 18.585938 C 48.191406 18.675781 48.136719 18.75 48.046875 18.789062 C 47.949219 18.832031 47.84375 18.859375 47.734375 18.867188 C 47.535156 18.890625 47.503906 18.898438 47.4375 19.121094 L 47.417969 19.203125 C 47.402344 19.300781 47.410156 19.316406 47.503906 19.316406 L 49.730469 19.335938 L 50.601562 19.324219 L 51.203125 19.246094 C 51.890625 19.121094 52.5 18.839844 53.019531 18.382812 C 53.316406 18.121094 53.5625 17.804688 53.734375 17.445312 C 53.945312 17.03125 54.03125 16.574219 54.054688 16.113281 C 54.09375 15.855469 54.078125 15.585938 54.035156 15.320312 Z M 52.953125 16.375 C 52.925781 16.851562 52.828125 17.3125 52.582031 17.730469 C 52.269531 18.273438 51.824219 18.652344 51.207031 18.785156 C 50.9375 18.839844 50.667969 18.867188 50.386719 18.832031 C 50.1875 18.808594 49.996094 18.785156 49.808594 18.71875 C 49.472656 18.597656 49.355469 18.390625 49.347656 18.066406 L 49.339844 13.578125 C 49.339844 13.308594 49.460938 13.25 49.652344 13.242188 C 49.941406 13.222656 50.238281 13.226562 50.53125 13.257812 C 50.839844 13.289062 51.140625 13.359375 51.429688 13.476562 C 51.644531 13.566406 51.84375 13.6875 52.019531 13.839844 C 52.421875 14.183594 52.6875 14.613281 52.835938 15.121094 C 52.957031 15.53125 52.976562 15.945312 52.957031 16.363281 Z M 60.21875 17.105469 C 60.21875 17.058594 60.21875 17.023438 60.210938 16.976562 C 60.144531 16.570312 59.929688 16.257812 59.59375 16.019531 C 59.378906 15.863281 59.132812 15.757812 58.878906 15.683594 C 58.835938 15.667969 58.796875 15.652344 58.753906 15.644531 C 58.761719 15.609375 58.78125 15.601562 58.804688 15.59375 C 58.953125 15.519531 59.097656 15.4375 59.222656 15.324219 C 59.453125 15.132812 59.601562 14.894531 59.683594 14.605469 C 59.726562 14.449219 59.726562 14.289062 59.714844 14.128906 C 59.6875 13.738281 59.488281 13.382812 59.167969 13.160156 C 58.828125 12.90625 58.425781 12.800781 58.007812 12.792969 C 57.203125 12.78125 56.394531 12.792969 55.589844 12.792969 C 55.359375 12.792969 55.128906 12.808594 54.890625 12.773438 C 54.847656 12.765625 54.78125 12.75 54.75 12.800781 C 54.695312 12.898438 54.628906 12.996094 54.609375 13.109375 C 54.601562 13.160156 54.617188 13.1875 54.675781 13.195312 L 55.1875 13.269531 C 55.390625 13.300781 55.53125 13.414062 55.546875 13.589844 C 55.558594 13.714844 55.566406 13.839844 55.566406 13.964844 L 55.550781 15.355469 L 55.546875 18.109375 C 55.546875 18.273438 55.523438 18.429688 55.492188 18.59375 C 55.476562 18.699219 55.402344 18.785156 55.300781 18.816406 C 55.152344 18.859375 55.007812 18.90625 54.851562 18.90625 C 54.765625 18.898438 54.6875 18.949219 54.660156 19.03125 C 54.628906 19.097656 54.605469 19.171875 54.59375 19.238281 C 54.578125 19.328125 54.601562 19.359375 54.6875 19.347656 C 54.757812 19.339844 57.210938 19.402344 57.671875 19.355469 C 57.949219 19.328125 58.21875 19.289062 58.492188 19.207031 C 58.960938 19.058594 59.394531 18.84375 59.734375 18.476562 C 60.019531 18.179688 60.183594 17.824219 60.195312 17.40625 C 60.21875 17.308594 60.21875 17.210938 60.21875 17.109375 Z M 56.609375 14.054688 L 56.632812 13.460938 C 56.632812 13.347656 56.675781 13.296875 56.789062 13.273438 C 56.964844 13.234375 57.144531 13.25 57.324219 13.257812 C 57.503906 13.273438 57.671875 13.296875 57.851562 13.347656 C 58.179688 13.445312 58.433594 13.632812 58.582031 13.941406 C 58.648438 14.085938 58.683594 14.238281 58.6875 14.398438 C 58.691406 14.605469 58.679688 14.808594 58.597656 15.007812 C 58.46875 15.28125 58.269531 15.460938 57.980469 15.511719 C 57.6875 15.566406 56.863281 15.542969 56.734375 15.542969 C 56.625 15.542969 56.617188 15.527344 56.617188 15.417969 L 56.617188 14.714844 C 56.597656 14.5 56.597656 14.28125 56.609375 14.0625 Z M 59.027344 18.058594 C 58.902344 18.394531 58.671875 18.625 58.34375 18.75 C 58.164062 18.816406 57.984375 18.859375 57.796875 18.847656 C 57.566406 18.839844 57.335938 18.847656 57.105469 18.800781 C 56.792969 18.734375 56.652344 18.4375 56.628906 18.222656 C 56.59375 17.84375 56.617188 17.457031 56.609375 17.171875 L 56.609375 16.191406 C 56.609375 16.070312 56.625 16.035156 56.75 16.035156 L 57.449219 16.042969 L 57.925781 16.097656 C 58.261719 16.171875 58.566406 16.296875 58.804688 16.558594 C 59 16.765625 59.101562 17.019531 59.125 17.292969 C 59.148438 17.554688 59.132812 17.808594 59.035156 18.054688 Z M 59.027344 18.058594 "/>
<path style=" stroke:none;fill-rule:nonzero;fill:rgb(27.843137%,27.843137%,29.019608%);fill-opacity:1;" d="M 40.117188 15.816406 L 40.3125 15.847656 C 40.519531 15.855469 40.765625 15.78125 40.839844 15.488281 C 40.878906 15.351562 40.878906 15.203125 40.839844 15.0625 C 40.792969 15.0625 40.773438 15.101562 40.75 15.117188 C 40.636719 15.207031 40.511719 15.257812 40.378906 15.273438 C 40.109375 15.304688 39.84375 15.289062 39.582031 15.191406 L 39.214844 15.066406 C 38.960938 14.980469 38.695312 14.945312 38.425781 14.960938 C 38.046875 14.992188 37.691406 15.117188 37.355469 15.296875 C 37 15.488281 36.746094 15.78125 36.625 16.175781 C 36.558594 16.40625 36.550781 16.644531 36.582031 16.882812 C 36.65625 17.425781 36.9375 17.804688 37.445312 18.003906 C 37.472656 18.011719 37.496094 18.027344 37.527344 18.035156 C 37.59375 18.074219 37.601562 18.109375 37.539062 18.160156 L 37.355469 18.289062 L 36.90625 18.5625 C 36.796875 18.632812 36.78125 18.683594 36.816406 18.800781 C 36.863281 18.941406 36.945312 19.066406 37.054688 19.160156 C 37.160156 19.246094 37.273438 19.316406 37.398438 19.367188 C 37.480469 19.40625 37.480469 19.421875 37.40625 19.488281 L 36.980469 19.792969 C 36.839844 19.902344 36.699219 20.011719 36.578125 20.148438 C 36.414062 20.328125 36.34375 20.582031 36.402344 20.820312 C 36.457031 21.078125 36.59375 21.3125 36.789062 21.488281 C 36.980469 21.667969 37.214844 21.796875 37.472656 21.863281 C 37.890625 21.980469 38.320312 21.988281 38.746094 21.90625 C 39.355469 21.792969 39.890625 21.523438 40.308594 21.066406 C 40.597656 20.761719 40.769531 20.402344 40.785156 19.976562 C 40.816406 19.464844 40.476562 19.007812 39.980469 18.890625 L 39.578125 18.816406 L 38.351562 18.707031 C 38.21875 18.699219 38.082031 18.675781 37.972656 18.609375 C 37.828125 18.519531 37.792969 18.347656 37.882812 18.238281 C 37.949219 18.15625 38.03125 18.101562 38.136719 18.09375 L 38.375 18.074219 C 38.84375 18.027344 39.285156 17.824219 39.628906 17.5 C 39.816406 17.332031 39.945312 17.109375 40.011719 16.867188 C 40.097656 16.546875 40.097656 16.214844 40.023438 15.886719 C 40.003906 15.804688 40.011719 15.796875 40.113281 15.8125 Z M 38.292969 19.523438 C 38.335938 19.53125 38.382812 19.523438 38.425781 19.523438 C 38.738281 19.539062 39.058594 19.558594 39.363281 19.644531 C 39.464844 19.671875 39.5625 19.710938 39.65625 19.753906 C 39.953125 19.917969 40.066406 20.203125 40.027344 20.507812 C 39.984375 20.839844 39.796875 21.078125 39.507812 21.234375 C 39.3125 21.34375 39.097656 21.390625 38.875 21.414062 C 38.792969 21.421875 38.71875 21.414062 38.636719 21.414062 C 38.375 21.421875 38.121094 21.394531 37.875 21.289062 C 37.703125 21.222656 37.5625 21.125 37.4375 20.992188 C 37.175781 20.730469 37.054688 20.253906 37.445312 19.867188 C 37.683594 19.648438 37.949219 19.496094 38.292969 19.523438 Z M 39.140625 17.203125 C 38.984375 17.59375 38.644531 17.714844 38.300781 17.664062 C 37.988281 17.617188 37.757812 17.445312 37.609375 17.164062 C 37.414062 16.785156 37.363281 16.390625 37.476562 15.980469 C 37.558594 15.675781 37.742188 15.445312 38.070312 15.390625 C 38.488281 15.316406 38.886719 15.464844 39.097656 15.882812 C 39.207031 16.085938 39.253906 16.328125 39.253906 16.679688 C 39.246094 16.820312 39.214844 17.015625 39.140625 17.199219 Z M 29.765625 16.695312 C 29.699219 16.292969 29.550781 15.929688 29.273438 15.625 C 28.863281 15.167969 28.34375 14.96875 27.753906 14.96875 C 27.242188 14.960938 26.757812 15.109375 26.324219 15.378906 C 25.902344 15.632812 25.589844 16.039062 25.457031 16.515625 C 25.328125 16.949219 25.335938 17.386719 25.433594 17.824219 C 25.695312 19.003906 26.601562 19.507812 27.6875 19.433594 C 28.007812 19.410156 28.3125 19.308594 28.601562 19.164062 C 29.035156 18.964844 29.347656 18.644531 29.5625 18.21875 C 29.734375 17.871094 29.808594 17.5 29.800781 17.074219 Z M 28.707031 18.347656 C 28.597656 18.6875 28.296875 18.933594 27.941406 18.972656 C 27.613281 19.015625 27.308594 18.933594 27.035156 18.742188 C 26.835938 18.59375 26.675781 18.402344 26.566406 18.183594 C 26.257812 17.558594 26.207031 16.902344 26.363281 16.234375 C 26.414062 16.027344 26.523438 15.835938 26.675781 15.691406 C 26.953125 15.4375 27.269531 15.378906 27.628906 15.453125 C 27.972656 15.527344 28.230469 15.710938 28.445312 15.996094 C 28.660156 16.277344 28.757812 16.605469 28.816406 16.949219 C 28.847656 17.121094 28.847656 17.296875 28.855469 17.410156 C 28.855469 17.765625 28.824219 18.0625 28.714844 18.347656 Z M 46.027344 16.753906 C 45.972656 16.324219 45.8125 15.929688 45.503906 15.601562 C 45.101562 15.164062 44.582031 14.976562 44.003906 14.96875 C 43.503906 14.960938 43.042969 15.101562 42.617188 15.347656 C 42.140625 15.632812 41.8125 16.03125 41.6875 16.574219 C 41.535156 17.167969 41.601562 17.796875 41.867188 18.347656 C 42.109375 18.867188 42.527344 19.203125 43.078125 19.351562 C 43.691406 19.515625 44.269531 19.441406 44.835938 19.164062 C 45.328125 18.925781 45.675781 18.554688 45.878906 18.050781 C 45.996094 17.75 46.042969 17.433594 46.046875 17.058594 C 46.054688 16.992188 46.042969 16.871094 46.027344 16.753906 Z M 45 18.25 C 44.878906 18.652344 44.628906 18.914062 44.203125 18.972656 C 43.890625 19.015625 43.59375 18.941406 43.324219 18.765625 C 43.09375 18.609375 42.929688 18.398438 42.8125 18.15625 C 42.675781 17.894531 42.601562 17.617188 42.574219 17.335938 C 42.527344 16.984375 42.527344 16.644531 42.609375 16.292969 C 42.625 16.226562 42.648438 16.15625 42.675781 16.09375 C 42.886719 15.570312 43.347656 15.332031 43.890625 15.453125 C 44.253906 15.535156 44.53125 15.738281 44.738281 16.042969 C 44.941406 16.339844 45.035156 16.667969 45.082031 17.023438 C 45.105469 17.164062 45.113281 17.3125 45.105469 17.4375 C 45.105469 17.726562 45.082031 17.996094 44.996094 18.257812 Z M 45 18.25 "/>
</g>
</svg>
