<?xml version="1.0" encoding="UTF-8"?>
<svg xmlns="http://www.w3.org/2000/svg" xmlns:xlink="http://www.w3.org/1999/xlink" width="64px" height="64px" viewBox="0 0 64 64" version="1.1">
<defs>
<radialGradient id="radial0" gradientUnits="userSpaceOnUse" cx="15.115" cy="63.965" fx="15.115" fy="63.965" r="12.289" gradientTransform="matrix(2.133333,0,0,0.735672,-0.2453,6.447667)">
<stop offset="0" style="stop-color:rgb(0%,0%,0%);stop-opacity:1;"/>
<stop offset="1" style="stop-color:rgb(0%,0%,0%);stop-opacity:0;"/>
</radialGradient>
<linearGradient id="linear0" gradientUnits="userSpaceOnUse" x1="119.191" y1="89.13" x2="116.965" y2="169.279" gradientTransform="matrix(0.471837,0,0,0.471837,-21.852933,-23.996)">
<stop offset="0" style="stop-color:rgb(100%,88.627451%,32.54902%);stop-opacity:1;"/>
<stop offset="1" style="stop-color:rgb(100%,79.215686%,10.980392%);stop-opacity:1;"/>
</linearGradient>
<filter id="alpha" filterUnits="objectBoundingBox" x="0%" y="0%" width="100%" height="100%">
  <feColorMatrix type="matrix" in="SourceGraphic" values="0 0 0 0 1 0 0 0 0 1 0 0 0 0 1 0 0 0 1 0"/>
</filter>
<mask id="mask0">
  <g filter="url(#alpha)">
<rect x="0" y="0" width="64" height="64" style="fill:rgb(0%,0%,0%);fill-opacity:0.835294;stroke:none;"/>
  </g>
</mask>
<linearGradient id="linear1" gradientUnits="userSpaceOnUse" x1="94.693" y1="112.511" x2="94.693" y2="64.053" gradientTransform="matrix(0.471837,0,0,0.471837,-8.39596,-10.593827)">
<stop offset="0" style="stop-color:rgb(100%,100%,100%);stop-opacity:1;"/>
<stop offset="1" style="stop-color:rgb(100%,100%,100%);stop-opacity:0.164706;"/>
</linearGradient>
<clipPath id="clip1">
  <rect x="0" y="0" width="64" height="64"/>
</clipPath>
<g id="surface5" clip-path="url(#clip1)">
<path style=" stroke:none;fill-rule:nonzero;fill:url(#linear1);" d="M 47.023438 18.058594 L 47.023438 23.695312 C 42.472656 31.6875 33.832031 31.703125 26.585938 31.703125 L 23.894531 31.980469 C 20.117188 35.226562 19.996094 40.441406 20 45.011719 C 28.332031 35.714844 37.222656 35.011719 41.65625 35.03125 C 50.507812 35.070312 54.675781 32.894531 58.902344 28.105469 C 58.882812 28.011719 58.925781 27.929688 58.902344 27.835938 C 58.738281 26.769531 58.453125 25.628906 58.15625 24.441406 C 57.726562 22.730469 57.164062 21.222656 56.253906 20.09375 C 56.234375 20.074219 56.203125 20.050781 56.1875 20.027344 C 56.1875 20.027344 56.132812 20.027344 56.121094 20.027344 C 56.089844 19.992188 56.082031 19.929688 56.054688 19.894531 C 55.992188 19.847656 55.984375 19.800781 55.917969 19.757812 C 55.898438 19.738281 55.867188 19.78125 55.851562 19.757812 C 54.886719 19.132812 53.714844 18.667969 52.527344 18.46875 C 51.449219 18.292969 50.367188 18.15625 49.265625 18.0625 L 47.027344 18.0625 Z M 47.023438 18.058594 "/>
</g>
<mask id="mask1">
  <g filter="url(#alpha)">
<rect x="0" y="0" width="64" height="64" style="fill:rgb(0%,0%,0%);fill-opacity:0.384314;stroke:none;"/>
  </g>
</mask>
<clipPath id="clip2">
  <rect x="0" y="0" width="64" height="64"/>
</clipPath>
<g id="surface8" clip-path="url(#clip2)">
<path style=" stroke:none;fill-rule:nonzero;fill:rgb(100%,100%,100%);fill-opacity:1;" d="M 47.285156 19.144531 L 47.285156 22.335938 C 47.285156 27.300781 42.625 32.167969 37.3125 32.167969 L 26.3125 32.167969 C 22.511719 32.167969 20.957031 35.046875 20.976562 38.085938 L 21.050781 50.105469 C 21.0625 51.496094 21.582031 52.535156 22.582031 53.429688 C 23.578125 54.328125 25.078125 55.007812 26.652344 55.46875 C 30.542969 56.601562 34.089844 56.804688 38.738281 55.46875 C 40.25 55.035156 42.257812 54.214844 43.269531 53.339844 C 44.28125 52.464844 45.011719 51.613281 45.011719 50.105469 L 45.011719 45.265625 L 31.609375 45.265625 L 31.609375 43.023438 L 51.84375 43.09375 C 53.445312 43.09375 54.226562 42.460938 55.023438 41.539062 C 55.816406 40.621094 56.507812 38.8125 57.136719 36.933594 C 58.398438 33.1875 58.382812 29.667969 57.136719 24.710938 C 56.703125 22.980469 56.074219 21.582031 55.238281 20.636719 C 54.398438 19.691406 53.429688 19.144531 51.84375 19.144531 Z M 49.460938 21.316406 L 51.84375 21.316406 C 52.535156 21.316406 53.441406 21.875 53.605469 22.0625 C 54.089844 22.609375 54.648438 23.714844 55.03125 25.253906 C 56.21875 29.976562 56.222656 32.921875 55.101562 36.253906 C 54.496094 38.050781 53.871094 39.738281 53.402344 40.253906 C 52.976562 40.707031 52.070312 40.933594 51.839844 40.933594 L 45.457031 40.863281 L 29.4375 40.863281 L 29.4375 47.449219 L 42.839844 47.449219 L 42.839844 50.117188 C 42.839844 51.085938 41.539062 51.6875 41.316406 51.882812 C 40.667969 52.445312 39.515625 52.996094 38.195312 53.375 C 33.898438 54.609375 30.859375 54.421875 27.261719 53.375 C 25.902344 52.976562 24.722656 52.394531 24.054688 51.828125 C 23.386719 51.261719 23.34375 50.796875 23.222656 50.117188 L 23.148438 38.097656 C 23.128906 35.402344 24.007812 34.355469 26.3125 34.355469 L 37.3125 34.355469 C 43.878906 34.355469 49.460938 28.554688 49.460938 22.347656 C 49.460938 22.003906 49.460938 21.660156 49.460938 21.316406 Z M 49.460938 21.316406 "/>
</g>
<linearGradient id="linear2" gradientUnits="userSpaceOnUse" x1="59.728" y1="102" x2="142.62" y2="102" gradientTransform="matrix(0.471837,0,0,0.471837,-23.172667,-25.882667)">
<stop offset="0" style="stop-color:rgb(21.568627%,47.058824%,68.235294%);stop-opacity:1;"/>
<stop offset="1" style="stop-color:rgb(21.176471%,42.352941%,60%);stop-opacity:1;"/>
</linearGradient>
<mask id="mask2">
  <g filter="url(#alpha)">
<rect x="0" y="0" width="64" height="64" style="fill:rgb(0%,0%,0%);fill-opacity:0.376471;stroke:none;"/>
  </g>
</mask>
<linearGradient id="linear3" gradientUnits="userSpaceOnUse" x1="94.693" y1="112.511" x2="94.693" y2="64.053" gradientTransform="matrix(0.471837,0,0,0.471837,-23.172667,-25.882667)">
<stop offset="0" style="stop-color:rgb(100%,100%,100%);stop-opacity:1;"/>
<stop offset="1" style="stop-color:rgb(100%,100%,100%);stop-opacity:0.164706;"/>
</linearGradient>
<clipPath id="clip3">
  <rect x="0" y="0" width="64" height="64"/>
</clipPath>
<g id="surface11" clip-path="url(#clip3)">
<path style=" stroke:none;fill-rule:nonzero;fill:url(#linear3);" d="M 30.289062 2.660156 C 28.40625 2.707031 26.597656 2.921875 24.992188 3.203125 C 19.601562 4.148438 18.679688 6.148438 18.679688 9.789062 L 18.285156 16.171875 L 13.859375 16.171875 C 10.15625 16.171875 6.929688 18.359375 5.914062 22.554688 C 5.226562 25.382812 4.914062 27.597656 5.03125 29.953125 C 13.421875 20.445312 22.425781 19.75 26.894531 19.769531 C 35.746094 19.808594 39.914062 17.632812 44.140625 12.84375 L 44.140625 9.789062 C 44.140625 6.367188 41.214844 3.773438 37.757812 3.203125 C 35.296875 2.796875 32.710938 2.601562 30.289062 2.660156 Z M 30.289062 2.660156 "/>
</g>
<mask id="mask3">
  <g filter="url(#alpha)">
<rect x="0" y="0" width="64" height="64" style="fill:rgb(0%,0%,0%);fill-opacity:0.164706;stroke:none;"/>
  </g>
</mask>
<clipPath id="clip4">
  <rect x="0" y="0" width="64" height="64"/>
</clipPath>
<g id="surface14" clip-path="url(#clip4)">
<path style=" stroke:none;fill-rule:nonzero;fill:rgb(100%,100%,100%);fill-opacity:1;" d="M 16.710938 40.871094 L 16.710938 37.144531 C 16.710938 32.175781 21.238281 27.773438 26.105469 27.773438 L 37.683594 27.773438 C 40.558594 27.773438 43.050781 24.785156 43.023438 21.929688 L 42.914062 9.910156 C 42.898438 8.519531 42.417969 7.480469 41.417969 6.585938 C 40.421875 5.691406 38.921875 5.007812 37.34375 4.546875 C 33.457031 3.414062 29.910156 3.210938 25.261719 4.546875 C 23.75 4.980469 21.742188 5.800781 20.730469 6.675781 C 19.71875 7.550781 18.988281 8.40625 18.988281 9.910156 L 18.988281 14.75 L 32.390625 14.75 L 32.390625 16.992188 L 12.15625 16.925781 C 10.558594 16.925781 9.773438 17.554688 8.976562 18.476562 C 8.183594 19.398438 7.492188 21.203125 6.859375 23.082031 C 5.601562 26.828125 5.617188 30.347656 6.859375 35.304688 C 7.292969 37.035156 7.925781 38.433594 8.761719 39.378906 C 9.597656 40.324219 10.570312 40.871094 12.15625 40.871094 Z M 14.539062 38.699219 L 12.15625 38.699219 C 11.464844 38.699219 10.558594 38.140625 10.390625 37.953125 C 9.90625 37.40625 9.351562 36.300781 8.964844 34.761719 C 7.78125 30.039062 7.777344 27.09375 8.898438 23.761719 C 9.5 21.964844 10.125 20.277344 10.59375 19.777344 C 11.019531 19.324219 11.917969 19.097656 12.15625 19.097656 L 34.5625 19.164062 L 34.5625 12.578125 L 21.160156 12.578125 L 21.160156 9.914062 C 21.160156 8.941406 22.457031 8.339844 22.679688 8.148438 C 23.332031 7.585938 24.480469 7.03125 25.804688 6.652344 C 30.101562 5.417969 33.136719 5.605469 36.734375 6.652344 C 38.097656 7.050781 39.277344 7.632812 39.925781 8.214844 C 40.15625 8.394531 40.277344 8.613281 40.46875 8.828125 C 40.734375 9.140625 40.675781 9.558594 40.738281 9.914062 L 40.738281 21.929688 C 40.738281 23.578125 39.328125 25.601562 37.683594 25.601562 L 26.105469 25.601562 C 19.984375 25.601562 14.535156 30.9375 14.535156 37.144531 C 14.535156 37.660156 14.535156 38.699219 14.535156 38.699219 Z M 14.539062 38.699219 "/>
</g>
</defs>
<g id="surface1">
<path style=" stroke:none;fill-rule:nonzero;fill:url(#radial0);" d="M 58.214844 53.503906 C 58.214844 58.5 46.480469 62.546875 32 62.546875 C 17.519531 62.546875 5.785156 58.5 5.785156 53.503906 C 5.785156 48.511719 17.519531 44.464844 32 44.464844 C 46.480469 44.464844 58.214844 48.511719 58.214844 53.503906 Z M 58.214844 53.503906 "/>
<path style=" stroke:none;fill-rule:nonzero;fill:url(#linear0);" d="M 45.441406 50.105469 C 45.441406 53.75 42.277344 55.59375 39.070312 56.511719 C 34.242188 57.902344 30.371094 57.6875 26.335938 56.511719 C 22.96875 55.53125 19.964844 53.527344 19.964844 50.105469 L 19.964844 38.089844 C 19.964844 34.628906 22.847656 31.675781 26.335938 31.675781 L 38.867188 30.863281 C 43.109375 30.863281 45.882812 28.214844 45.882812 23.867188 L 47.035156 18.058594 L 51.808594 18.058594 C 55.519531 18.058594 57.265625 20.8125 58.179688 24.464844 C 59.453125 29.539062 59.511719 33.332031 58.179688 37.285156 C 56.890625 41.125 55.511719 43.695312 51.808594 43.695312 L 32.707031 43.695312 L 32.707031 43.667969 C 43.695312 43.695312 45.441406 39.246094 45.441406 50.105469 Z M 45.441406 50.105469 "/>
<path style=" stroke:none;fill-rule:nonzero;fill:rgb(100%,100%,100%);fill-opacity:1;" d="M 37.480469 50.902344 C 37.480469 49.578125 38.550781 48.5 39.867188 48.5 C 41.203125 48.5 42.253906 49.578125 42.253906 50.902344 C 42.253906 52.234375 41.1875 53.308594 39.867188 53.308594 C 38.550781 53.308594 37.480469 52.234375 37.480469 50.902344 Z M 37.480469 50.902344 "/>
<use xlink:href="#surface5" mask="url(#mask0)"/>
<path style="fill:none;stroke-width:1.63;stroke-linecap:butt;stroke-linejoin:miter;stroke:rgb(73.333333%,58.039216%,0%);stroke-opacity:1;stroke-miterlimit:4;" d="M 34.558594 37.579102 C 34.558594 40.30957 31.708008 41.695312 29.302734 42.383789 C 25.681641 43.423828 22.77832 43.265625 19.751953 42.383789 C 17.223633 41.648438 14.950195 40.145508 14.947266 37.579102 L 14.929688 28.321289 C 14.920898 25.248047 17.232422 23.311523 19.78125 23.323242 L 28.248047 23.337891 C 31.49707 23.337891 34.655273 20.036133 34.646484 16.787109 L 34.646484 13.549805 L 38.856445 13.549805 C 41.639648 13.549805 42.946289 15.618164 43.634766 18.357422 C 44.589844 22.160156 44.633789 25.004883 43.634766 27.969727 C 42.667969 30.849609 41.633789 33.117188 38.856445 33.120117 L 24.527344 33.120117 L 24.527344 33.099609 L 34.558594 33.131836 Z M 34.558594 37.579102 " transform="matrix(1.333333,0,0,1.333333,0,0)"/>
<use xlink:href="#surface8" mask="url(#mask1)"/>
<path style=" stroke:none;fill-rule:nonzero;fill:url(#linear2);" d="M 18.644531 9.761719 C 18.644531 6.117188 19.621094 4.136719 25.015625 3.191406 C 28.675781 2.550781 33.371094 2.46875 37.75 3.191406 C 41.210938 3.761719 44.121094 6.339844 44.121094 9.761719 L 44.121094 21.777344 C 44.121094 25.300781 41.292969 28.191406 37.75 28.191406 L 26.203125 28.828125 C 21.878906 28.828125 17.417969 32.605469 17.417969 36.769531 L 17.050781 41.808594 L 12.671875 41.808594 C 8.96875 41.808594 6.8125 39.136719 5.90625 35.398438 C 4.683594 30.378906 4.738281 27.386719 5.90625 22.578125 C 6.921875 18.386719 10.164062 16.171875 13.507812 16.171875 L 18.285156 16.171875 C 18.285156 16.171875 30.210938 16.125 18.285156 16.128906 L 18.285156 9.761719 Z M 18.644531 9.761719 "/>
<path style=" stroke:none;fill-rule:nonzero;fill:rgb(100%,100%,100%);fill-opacity:1;" d="M 21.832031 8.960938 C 21.832031 7.628906 22.898438 6.554688 24.21875 6.554688 C 25.535156 6.554688 26.605469 7.632812 26.605469 8.960938 C 26.605469 10.289062 25.535156 11.363281 24.21875 11.363281 C 22.898438 11.363281 21.832031 10.289062 21.832031 8.960938 Z M 21.832031 8.960938 "/>
<use xlink:href="#surface11" mask="url(#mask2)"/>
<path style="fill:none;stroke-width:1.63;stroke-linecap:butt;stroke-linejoin:miter;stroke:rgb(15.294118%,30.588235%,43.921569%);stroke-opacity:1;stroke-miterlimit:4;" d="M 18.697266 2.62793 C 22.31543 1.587891 25.22168 1.746094 28.248047 2.62793 C 30.773438 3.363281 33.026367 4.866211 33.023438 7.432617 L 33.023438 17.165039 C 33.023438 18.530273 31.048828 21.694336 28.250977 21.694336 L 19.353516 21.694336 C 16.854492 21.694336 13.356445 24.416016 13.356445 27.673828 L 13.356445 31.467773 L 9.146484 31.467773 C 6.363281 31.467773 5.053711 29.402344 4.368164 26.663086 C 3.413086 22.857422 3.369141 20.012695 4.368164 17.047852 C 5.334961 14.167969 6.369141 11.900391 9.146484 11.900391 L 23.475586 11.900391 L 23.475586 11.917969 L 13.444336 11.885742 L 13.464844 7.010742 C 13.438477 5.015625 15.878906 3.459961 18.694336 2.62793 Z M 18.697266 2.62793 " transform="matrix(1.333333,0,0,1.333333,0,0)"/>
<use xlink:href="#surface14" mask="url(#mask3)"/>
</g>
</svg>
