<?xml version="1.0" encoding="UTF-8"?>
<svg xmlns="http://www.w3.org/2000/svg" xmlns:xlink="http://www.w3.org/1999/xlink" width="64px" height="64px" viewBox="0 0 64 77" version="1.1">
<g id="surface1">
<path style=" stroke:none;fill-rule:nonzero;fill:rgb(93.333333%,29.803922%,17.254902%);fill-opacity:1;" d="M 54.574219 22.410156 L 48.832031 28.113281 C 58.257812 37.480469 58.257812 52.546875 48.832031 61.769531 C 39.40625 71.132812 24.238281 71.132812 14.953125 61.769531 C 5.527344 52.40625 5.527344 37.339844 14.953125 28.113281 L 29.910156 13.257812 L 32.035156 11.148438 L 32.035156 -0.046875 L 9.496094 22.339844 C -3.046875 34.804688 -3.046875 54.941406 9.496094 67.402344 C 22.042969 79.863281 42.3125 79.863281 54.644531 67.402344 C 67.117188 54.941406 67.117188 34.945312 54.574219 22.410156 Z M 54.574219 22.410156 "/>
<path style=" stroke:none;fill-rule:nonzero;fill:rgb(93.333333%,29.803922%,17.254902%);fill-opacity:1;" d="M 47.484375 16.921875 C 47.484375 19.214844 45.613281 21.074219 43.304688 21.074219 C 40.996094 21.074219 39.121094 19.214844 39.121094 16.921875 C 39.121094 14.625 40.996094 12.765625 43.304688 12.765625 C 45.613281 12.765625 47.484375 14.625 47.484375 16.921875 Z M 47.484375 16.921875 "/>
</g>
</svg>
