<?xml version="1.0" encoding="UTF-8"?>
<svg xmlns="http://www.w3.org/2000/svg" xmlns:xlink="http://www.w3.org/1999/xlink" width="64px" height="64px" viewBox="0 0 64 64" version="1.1">
<g id="surface1">
<path style=" stroke:none;fill-rule:nonzero;fill:rgb(0%,0%,0%);fill-opacity:1;" d="M 32.234375 46.722656 C 29.886719 46.722656 28.53125 49.027344 28.53125 51.871094 C 28.507812 54.765625 29.910156 56.976562 32.214844 56.976562 C 34.539062 56.976562 35.894531 54.785156 35.894531 51.804688 C 35.894531 49.027344 34.585938 46.722656 32.234375 46.722656 Z M 32.234375 46.722656 "/>
<path style=" stroke:none;fill-rule:nonzero;fill:rgb(0%,0%,0%);fill-opacity:1;" d="M 55.203125 15.335938 C 55.199219 15.042969 55.105469 14.753906 54.90625 14.523438 L 42.566406 0.429688 C 42.5625 0.425781 42.558594 0.425781 42.554688 0.421875 C 42.480469 0.339844 42.398438 0.269531 42.304688 0.210938 C 42.28125 0.191406 42.25 0.175781 42.222656 0.160156 C 42.144531 0.121094 42.0625 0.0820312 41.976562 0.0585938 C 41.953125 0.0507812 41.929688 0.0429688 41.90625 0.0351562 C 41.816406 0.0117188 41.71875 0 41.621094 0 L 11.292969 0 C 9.910156 0 8.785156 1.125 8.785156 2.511719 L 8.785156 61.488281 C 8.785156 62.875 9.910156 64 11.292969 64 L 52.707031 64 C 54.089844 64 55.214844 62.875 55.214844 61.488281 L 55.214844 15.476562 C 55.214844 15.429688 55.207031 15.382812 55.203125 15.335938 Z M 17.125 59.6875 C 15.386719 59.6875 13.667969 59.234375 12.8125 58.761719 L 13.511719 55.914062 C 14.4375 56.390625 15.859375 56.863281 17.328125 56.863281 C 18.910156 56.863281 19.742188 56.207031 19.742188 55.214844 C 19.742188 54.265625 19.023438 53.726562 17.191406 53.070312 C 14.664062 52.1875 13.015625 50.789062 13.015625 48.574219 C 13.015625 45.976562 15.183594 43.988281 18.773438 43.988281 C 20.492188 43.988281 21.753906 44.351562 22.660156 44.757812 L 21.890625 47.535156 C 21.28125 47.242188 20.195312 46.816406 18.707031 46.816406 C 17.214844 46.816406 16.492188 47.492188 16.492188 48.28125 C 16.492188 49.253906 17.351562 49.683594 19.316406 50.425781 C 22.003906 51.421875 23.269531 52.820312 23.269531 54.96875 C 23.269531 57.519531 21.300781 59.6875 17.125 59.6875 Z M 38.605469 62.082031 C 36.4375 61.449219 34.628906 60.792969 32.597656 59.933594 C 32.257812 59.800781 31.898438 59.730469 31.535156 59.710938 C 28.101562 59.484375 24.894531 56.953125 24.894531 51.984375 C 24.894531 47.421875 27.785156 43.988281 32.324219 43.988281 C 36.980469 43.988281 39.53125 47.511719 39.53125 51.667969 C 39.53125 55.125 37.925781 57.5625 35.917969 58.46875 L 35.917969 58.558594 C 37.089844 58.898438 38.402344 59.167969 39.597656 59.414062 Z M 51.300781 59.460938 L 41.789062 59.460938 L 41.789062 44.238281 L 45.246094 44.238281 L 45.246094 56.570312 L 51.300781 56.570312 Z M 11.292969 42.613281 L 11.292969 2.511719 L 40.367188 2.511719 L 40.367188 15.351562 C 40.367188 16.042969 40.925781 16.605469 41.621094 16.605469 L 52.707031 16.605469 L 52.707031 42.613281 Z M 11.292969 42.613281 "/>
<path style=" stroke:none;fill-rule:nonzero;fill:rgb(0%,0%,0%);fill-opacity:1;" d="M 38.820312 19.890625 C 38.878906 19.738281 38.917969 19.582031 38.917969 19.417969 C 38.917969 17.398438 34.550781 16.308594 30.441406 16.308594 C 26.339844 16.308594 21.976562 17.398438 21.976562 19.417969 C 21.976562 19.582031 22.011719 19.738281 22.070312 19.890625 L 22.046875 19.929688 C 21.859375 20.269531 21.765625 20.613281 21.765625 20.953125 L 21.765625 23.453125 C 21.765625 23.835938 21.886719 24.207031 22.101562 24.554688 L 22.074219 24.601562 C 21.871094 24.957031 21.765625 25.316406 21.765625 25.671875 L 21.765625 28.171875 C 21.765625 28.542969 21.882812 28.902344 22.085938 29.242188 L 22.074219 29.257812 C 21.871094 29.613281 21.765625 29.972656 21.765625 30.328125 L 21.765625 32.824219 C 21.765625 35.046875 25.578125 36.789062 30.441406 36.789062 C 35.3125 36.789062 39.125 35.046875 39.125 32.824219 L 39.125 30.328125 C 39.125 29.972656 39.023438 29.609375 38.816406 29.257812 L 38.804688 29.242188 C 39.007812 28.902344 39.125 28.546875 39.125 28.171875 L 39.125 25.671875 C 39.125 25.316406 39.023438 24.957031 38.816406 24.601562 L 38.789062 24.554688 C 39.003906 24.207031 39.125 23.835938 39.125 23.449219 L 39.125 20.953125 C 39.125 20.613281 39.03125 20.269531 38.84375 19.925781 Z M 38.195312 32.824219 C 38.195312 34.261719 35.011719 35.859375 30.441406 35.859375 C 25.878906 35.859375 22.695312 34.261719 22.695312 32.824219 L 22.695312 30.476562 C 24.121094 31.78125 27.050781 32.613281 30.441406 32.613281 C 33.839844 32.613281 36.769531 31.78125 38.195312 30.472656 Z M 38.195312 28.171875 C 38.195312 29.605469 35.011719 31.203125 30.441406 31.203125 C 25.878906 31.203125 22.695312 29.605469 22.695312 28.171875 L 22.695312 25.820312 C 24.121094 27.125 27.050781 27.957031 30.441406 27.957031 C 33.839844 27.957031 36.769531 27.125 38.195312 25.820312 Z M 38.195312 23.449219 C 38.195312 24.886719 35.011719 26.484375 30.441406 26.484375 C 25.878906 26.484375 22.695312 24.886719 22.695312 23.449219 L 22.695312 21.371094 C 24.089844 22.550781 27.316406 23.164062 30.441406 23.164062 C 33.574219 23.164062 36.800781 22.550781 38.195312 21.371094 Z M 38.195312 23.449219 "/>
</g>
</svg>
