<?xml version="1.0" encoding="UTF-8"?>
<svg xmlns="http://www.w3.org/2000/svg" xmlns:xlink="http://www.w3.org/1999/xlink" width="64px" height="64px" viewBox="0 0 64 16" version="1.1">
<g id="surface1">
<path style=" stroke:none;fill-rule:nonzero;fill:rgb(28.235294%,28.235294%,28.235294%);fill-opacity:1;" d="M 17.753906 3.53125 C 16.199219 3.53125 14.761719 4.375 13.378906 5.851562 C 12.015625 4.351562 10.558594 3.53125 8.929688 3.53125 C 6.230469 3.53125 4.261719 5.386719 4.261719 7.882812 C 4.261719 10.382812 6.230469 12.214844 8.929688 12.214844 C 10.585938 12.214844 11.871094 11.464844 13.304688 9.972656 C 14.691406 11.46875 16.101562 12.21875 17.753906 12.21875 C 20.449219 12.214844 22.417969 10.386719 22.417969 7.882812 C 22.417969 5.378906 20.449219 3.53125 17.753906 3.53125 Z M 8.949219 9.59375 C 7.804688 9.59375 7.125 8.867188 7.125 7.90625 C 7.125 6.945312 7.804688 6.199219 8.949219 6.199219 C 9.910156 6.199219 10.695312 6.945312 11.550781 7.953125 C 10.746094 8.890625 9.894531 9.59375 8.949219 9.59375 Z M 17.671875 9.59375 C 16.722656 9.59375 15.921875 8.867188 15.070312 7.90625 C 15.945312 6.902344 16.699219 6.199219 17.671875 6.199219 C 18.816406 6.199219 19.488281 6.957031 19.488281 7.90625 C 19.488281 8.859375 18.816406 9.59375 17.671875 9.59375 Z M 17.671875 9.59375 "/>
<path style=" stroke:none;fill-rule:nonzero;fill:rgb(12.54902%,65.490196%,78.823529%);fill-opacity:1;" d="M 15.335938 11.59375 L 17.148438 9.507812 C 16.429688 9.296875 15.761719 8.671875 15.070312 7.894531 L 13.304688 9.972656 C 13.882812 10.617188 14.570312 11.167969 15.335938 11.59375 Z M 15.335938 11.59375 "/>
<path style=" stroke:none;fill-rule:nonzero;fill:rgb(28.235294%,28.235294%,28.235294%);fill-opacity:1;" d="M 28.082031 9.367188 C 28.089844 9.152344 27.996094 8.949219 27.828125 8.8125 C 27.558594 8.625 27.253906 8.488281 26.929688 8.414062 C 26.328125 8.269531 25.757812 8.019531 25.246094 7.675781 C 24.871094 7.402344 24.65625 6.96875 24.671875 6.515625 C 24.667969 6.03125 24.914062 5.578125 25.332031 5.304688 C 25.824219 4.976562 26.414062 4.8125 27.015625 4.839844 C 27.625 4.816406 28.222656 5.003906 28.699219 5.371094 C 29.113281 5.683594 29.34375 6.167969 29.324219 6.671875 L 29.324219 6.695312 L 28.105469 6.695312 C 28.117188 6.441406 28.011719 6.195312 27.816406 6.019531 C 27.589844 5.835938 27.296875 5.746094 27.003906 5.761719 C 26.726562 5.746094 26.449219 5.820312 26.222656 5.976562 C 26.046875 6.109375 25.945312 6.3125 25.949219 6.527344 C 25.953125 6.722656 26.058594 6.902344 26.226562 7.011719 C 26.542969 7.191406 26.882812 7.328125 27.234375 7.421875 C 27.808594 7.546875 28.34375 7.800781 28.804688 8.152344 C 29.160156 8.453125 29.355469 8.894531 29.339844 9.351562 C 29.355469 9.835938 29.117188 10.296875 28.703125 10.574219 C 28.207031 10.894531 27.617188 11.050781 27.019531 11.019531 C 26.386719 11.035156 25.761719 10.859375 25.238281 10.511719 C 24.742188 10.203125 24.460938 9.65625 24.496094 9.089844 L 24.496094 9.0625 L 25.746094 9.0625 C 25.71875 9.367188 25.84375 9.660156 26.085938 9.855469 C 26.371094 10.039062 26.707031 10.125 27.046875 10.105469 C 27.324219 10.125 27.601562 10.050781 27.832031 9.902344 C 28 9.773438 28.09375 9.574219 28.082031 9.367188 Z M 28.082031 9.367188 "/>
<path style=" stroke:none;fill-rule:nonzero;fill:rgb(28.235294%,28.235294%,28.235294%);fill-opacity:1;" d="M 32.960938 10.296875 C 32.832031 10.519531 32.644531 10.703125 32.417969 10.839844 C 31.789062 11.175781 30.996094 11.066406 30.492188 10.574219 C 30.214844 10.265625 30.078125 9.792969 30.078125 9.164062 L 30.078125 6.457031 L 31.328125 6.457031 L 31.328125 9.179688 C 31.308594 9.421875 31.371094 9.664062 31.5 9.875 C 31.625 10.019531 31.8125 10.097656 32.007812 10.085938 C 32.183594 10.089844 32.359375 10.058594 32.523438 9.996094 C 32.664062 9.933594 32.785156 9.835938 32.875 9.714844 L 32.875 6.457031 L 34.132812 6.457031 L 34.132812 10.941406 L 33.0625 10.941406 Z M 32.960938 10.296875 "/>
<path style=" stroke:none;fill-rule:nonzero;fill:rgb(28.235294%,28.235294%,28.235294%);fill-opacity:1;" d="M 39.1875 8.824219 C 39.214844 9.394531 39.046875 9.957031 38.707031 10.421875 C 38.390625 10.824219 37.894531 11.050781 37.371094 11.027344 C 37.148438 11.03125 36.925781 10.988281 36.722656 10.898438 C 36.535156 10.808594 36.367188 10.675781 36.242188 10.511719 L 36.242188 12.664062 L 34.992188 12.664062 L 34.992188 6.457031 L 36.121094 6.457031 L 36.195312 6.988281 C 36.324219 6.800781 36.492188 6.648438 36.691406 6.535156 C 36.898438 6.425781 37.132812 6.371094 37.371094 6.375 C 37.902344 6.355469 38.410156 6.601562 38.710938 7.027344 C 39.054688 7.535156 39.222656 8.132812 39.191406 8.738281 Z M 37.929688 8.730469 C 37.945312 8.375 37.871094 8.023438 37.710938 7.699219 C 37.589844 7.453125 37.324219 7.296875 37.039062 7.308594 C 36.871094 7.300781 36.707031 7.339844 36.558594 7.417969 C 36.425781 7.496094 36.316406 7.605469 36.242188 7.738281 L 36.242188 9.707031 C 36.316406 9.832031 36.425781 9.929688 36.558594 9.996094 C 36.710938 10.066406 36.875 10.101562 37.039062 10.097656 C 37.3125 10.113281 37.574219 9.976562 37.710938 9.75 C 37.863281 9.464844 37.9375 9.144531 37.921875 8.824219 Z M 37.929688 8.730469 "/>
<path style=" stroke:none;fill-rule:nonzero;fill:rgb(28.235294%,28.235294%,28.235294%);fill-opacity:1;" d="M 41.914062 11.027344 C 41.3125 11.054688 40.722656 10.828125 40.304688 10.40625 C 39.898438 9.976562 39.683594 9.410156 39.703125 8.828125 L 39.703125 8.664062 C 39.679688 8.066406 39.882812 7.480469 40.273438 7.015625 C 41.070312 6.203125 42.414062 6.160156 43.265625 6.921875 C 43.628906 7.332031 43.816406 7.863281 43.789062 8.402344 L 43.789062 9.058594 L 41.003906 9.058594 L 41.003906 9.085938 C 41.019531 9.355469 41.125 9.609375 41.3125 9.8125 C 41.507812 10.003906 41.777344 10.109375 42.054688 10.097656 C 42.289062 10.101562 42.523438 10.074219 42.746094 10.015625 C 42.957031 9.949219 43.160156 9.863281 43.347656 9.761719 L 43.6875 10.507812 C 43.464844 10.675781 43.214844 10.800781 42.945312 10.878906 C 42.613281 10.984375 42.265625 11.035156 41.914062 11.027344 Z M 41.800781 7.316406 C 41.585938 7.3125 41.378906 7.40625 41.25 7.574219 C 41.109375 7.773438 41.027344 8.007812 41.011719 8.25 L 41.023438 8.269531 L 42.5625 8.269531 L 42.5625 8.164062 C 42.574219 7.945312 42.507812 7.726562 42.375 7.546875 C 42.238281 7.382812 42.023438 7.292969 41.800781 7.308594 Z M 41.800781 7.316406 "/>
<path style=" stroke:none;fill-rule:nonzero;fill:rgb(28.235294%,28.235294%,28.235294%);fill-opacity:1;" d="M 46.988281 7.496094 L 46.527344 7.496094 C 46.367188 7.492188 46.207031 7.527344 46.066406 7.609375 C 45.945312 7.683594 45.851562 7.792969 45.792969 7.921875 L 45.792969 10.941406 L 44.542969 10.941406 L 44.542969 6.457031 L 45.714844 6.457031 L 45.769531 7.121094 C 45.863281 6.90625 46.007812 6.71875 46.195312 6.570312 C 46.367188 6.441406 46.578125 6.371094 46.796875 6.375 C 46.855469 6.375 46.914062 6.378906 46.96875 6.386719 L 47.132812 6.421875 Z M 46.988281 7.496094 "/>
<path style=" stroke:none;fill-rule:nonzero;fill:rgb(28.235294%,28.235294%,28.235294%);fill-opacity:1;" d="M 50.121094 9.707031 C 50.121094 9.566406 50.042969 9.4375 49.921875 9.359375 C 49.695312 9.230469 49.441406 9.144531 49.179688 9.105469 C 48.734375 9.039062 48.308594 8.875 47.9375 8.625 C 47.660156 8.421875 47.503906 8.101562 47.515625 7.761719 C 47.515625 7.378906 47.703125 7.011719 48.023438 6.777344 C 48.410156 6.492188 48.886719 6.351562 49.375 6.375 C 49.878906 6.347656 50.378906 6.492188 50.789062 6.777344 C 51.125 7.011719 51.316406 7.394531 51.296875 7.792969 L 51.296875 7.816406 L 50.09375 7.816406 C 50.097656 7.652344 50.035156 7.492188 49.914062 7.375 C 49.769531 7.253906 49.582031 7.195312 49.390625 7.207031 C 49.21875 7.199219 49.046875 7.25 48.910156 7.351562 C 48.796875 7.4375 48.734375 7.570312 48.734375 7.707031 C 48.734375 7.84375 48.804688 7.972656 48.917969 8.046875 C 49.148438 8.171875 49.398438 8.25 49.660156 8.28125 C 50.121094 8.347656 50.554688 8.511719 50.9375 8.765625 C 51.214844 8.980469 51.371094 9.308594 51.355469 9.652344 C 51.359375 10.046875 51.15625 10.417969 50.816406 10.640625 C 50.398438 10.914062 49.902344 11.046875 49.398438 11.023438 C 48.867188 11.050781 48.34375 10.882812 47.929688 10.558594 C 47.59375 10.320312 47.398438 9.941406 47.398438 9.539062 L 47.398438 9.515625 L 48.546875 9.515625 C 48.535156 9.71875 48.625 9.914062 48.785156 10.039062 C 48.964844 10.152344 49.179688 10.210938 49.394531 10.199219 C 49.578125 10.210938 49.765625 10.164062 49.921875 10.066406 C 50.046875 9.988281 50.125 9.851562 50.121094 9.707031 Z M 50.121094 9.707031 "/>
<path style=" stroke:none;fill-rule:nonzero;fill:rgb(28.235294%,28.235294%,28.235294%);fill-opacity:1;" d="M 54.101562 11.027344 C 53.5 11.054688 52.910156 10.828125 52.496094 10.40625 C 52.085938 9.976562 51.871094 9.410156 51.894531 8.828125 L 51.894531 8.664062 C 51.867188 8.066406 52.070312 7.480469 52.460938 7.015625 C 53.257812 6.203125 54.601562 6.160156 55.453125 6.921875 C 55.816406 7.332031 56.003906 7.863281 55.972656 8.402344 L 55.972656 9.058594 L 53.195312 9.058594 L 53.195312 9.085938 C 53.207031 9.355469 53.3125 9.609375 53.5 9.8125 C 53.691406 10.003906 53.964844 10.109375 54.242188 10.097656 C 54.476562 10.101562 54.710938 10.074219 54.933594 10.015625 C 55.144531 9.949219 55.347656 9.867188 55.539062 9.761719 L 55.878906 10.507812 C 55.65625 10.675781 55.402344 10.800781 55.132812 10.878906 C 54.800781 10.984375 54.453125 11.035156 54.101562 11.027344 Z M 53.992188 7.316406 C 53.773438 7.308594 53.566406 7.40625 53.441406 7.574219 C 53.296875 7.777344 53.214844 8.007812 53.199219 8.25 L 53.214844 8.269531 L 54.753906 8.269531 L 54.753906 8.164062 C 54.765625 7.945312 54.699219 7.726562 54.566406 7.546875 C 54.425781 7.382812 54.210938 7.289062 53.992188 7.308594 Z M 53.992188 7.316406 "/>
<path style=" stroke:none;fill-rule:nonzero;fill:rgb(28.235294%,28.235294%,28.235294%);fill-opacity:1;" d="M 58.308594 5.359375 L 58.308594 6.457031 L 59.09375 6.457031 L 59.09375 7.308594 L 58.308594 7.308594 L 58.308594 9.589844 C 58.296875 9.722656 58.335938 9.859375 58.421875 9.964844 C 58.503906 10.039062 58.613281 10.082031 58.722656 10.074219 C 58.78125 10.074219 58.835938 10.070312 58.890625 10.0625 C 58.949219 10.054688 59.003906 10.042969 59.058594 10.027344 L 59.167969 10.902344 C 59.046875 10.945312 58.921875 10.976562 58.796875 11 C 58.667969 11.019531 58.535156 11.027344 58.40625 11.027344 C 58.039062 11.050781 57.675781 10.929688 57.40625 10.683594 C 57.144531 10.378906 57.019531 9.988281 57.054688 9.59375 L 57.054688 7.308594 L 56.375 7.308594 L 56.375 6.457031 L 57.054688 6.457031 L 57.054688 5.359375 Z M 58.308594 5.359375 "/>
<path style=" stroke:none;fill-rule:nonzero;fill:rgb(12.54902%,65.490196%,78.823529%);fill-opacity:1;" d="M 13.378906 5.847656 C 12.804688 5.191406 12.121094 4.632812 11.359375 4.1875 L 9.542969 6.296875 C 10.234375 6.53125 10.84375 7.128906 11.492188 7.890625 L 11.566406 7.941406 Z M 13.378906 5.847656 "/>
<path style=" stroke:none;fill-rule:nonzero;fill:rgb(28.235294%,28.235294%,28.235294%);fill-opacity:1;" d="M 31.332031 4.96875 L 30.664062 4.96875 L 30.53125 5.332031 L 30.148438 5.332031 L 30.796875 3.640625 L 31.1875 3.640625 L 31.84375 5.332031 L 31.457031 5.332031 Z M 30.757812 4.703125 L 31.238281 4.703125 L 30.996094 4.035156 Z M 30.757812 4.703125 "/>
<path style=" stroke:none;fill-rule:nonzero;fill:rgb(28.235294%,28.235294%,28.235294%);fill-opacity:1;" d="M 33.273438 4.738281 C 33.28125 4.902344 33.230469 5.058594 33.125 5.1875 C 32.976562 5.347656 32.734375 5.402344 32.523438 5.320312 C 32.464844 5.296875 32.414062 5.261719 32.375 5.210938 L 32.375 5.816406 L 32 5.816406 L 32 4.078125 L 32.34375 4.078125 L 32.367188 4.226562 C 32.40625 4.171875 32.457031 4.128906 32.515625 4.097656 C 32.582031 4.066406 32.652344 4.050781 32.722656 4.054688 C 32.882812 4.046875 33.035156 4.113281 33.128906 4.234375 C 33.234375 4.375 33.285156 4.542969 33.277344 4.714844 Z M 32.890625 4.714844 C 32.894531 4.613281 32.871094 4.511719 32.824219 4.425781 C 32.78125 4.351562 32.703125 4.308594 32.617188 4.3125 C 32.566406 4.3125 32.515625 4.324219 32.472656 4.34375 C 32.429688 4.367188 32.398438 4.398438 32.375 4.4375 L 32.375 4.988281 C 32.398438 5.023438 32.433594 5.050781 32.472656 5.070312 C 32.519531 5.089844 32.570312 5.097656 32.621094 5.097656 C 32.703125 5.101562 32.78125 5.066406 32.824219 5 C 32.871094 4.917969 32.894531 4.828125 32.890625 4.738281 Z M 32.890625 4.714844 "/>
<path style=" stroke:none;fill-rule:nonzero;fill:rgb(28.235294%,28.235294%,28.235294%);fill-opacity:1;" d="M 34.339844 5.332031 C 34.324219 5.304688 34.3125 5.273438 34.300781 5.242188 C 34.292969 5.210938 34.285156 5.179688 34.285156 5.144531 C 34.242188 5.207031 34.191406 5.257812 34.125 5.296875 C 34.054688 5.339844 33.972656 5.363281 33.886719 5.359375 C 33.761719 5.367188 33.640625 5.332031 33.542969 5.257812 C 33.460938 5.1875 33.417969 5.085938 33.421875 4.980469 C 33.417969 4.863281 33.480469 4.753906 33.582031 4.691406 C 33.722656 4.617188 33.886719 4.582031 34.050781 4.589844 L 34.265625 4.589844 L 34.265625 4.492188 C 34.265625 4.441406 34.246094 4.386719 34.210938 4.351562 C 34.167969 4.3125 34.109375 4.296875 34.050781 4.300781 C 34 4.296875 33.949219 4.3125 33.90625 4.339844 C 33.875 4.367188 33.855469 4.410156 33.859375 4.453125 L 33.488281 4.453125 C 33.484375 4.339844 33.546875 4.234375 33.644531 4.179688 C 33.773438 4.097656 33.925781 4.054688 34.078125 4.0625 C 34.226562 4.054688 34.371094 4.097656 34.488281 4.175781 C 34.597656 4.253906 34.65625 4.375 34.648438 4.503906 L 34.648438 5.023438 C 34.648438 5.078125 34.652344 5.132812 34.664062 5.1875 C 34.675781 5.242188 34.691406 5.292969 34.710938 5.34375 Z M 33.988281 5.101562 C 34.054688 5.101562 34.117188 5.085938 34.171875 5.058594 C 34.214844 5.035156 34.253906 5 34.277344 4.957031 L 34.277344 4.777344 L 34.0625 4.777344 C 33.996094 4.773438 33.929688 4.792969 33.875 4.832031 C 33.835938 4.863281 33.8125 4.914062 33.8125 4.960938 C 33.8125 5 33.832031 5.039062 33.863281 5.0625 C 33.898438 5.089844 33.945312 5.105469 33.988281 5.101562 Z M 33.988281 5.101562 "/>
<path style=" stroke:none;fill-rule:nonzero;fill:rgb(28.235294%,28.235294%,28.235294%);fill-opacity:1;" d="M 35.542969 5.101562 C 35.601562 5.105469 35.660156 5.085938 35.707031 5.046875 C 35.75 5.011719 35.769531 4.960938 35.769531 4.910156 L 36.117188 4.910156 C 36.121094 5.035156 36.058594 5.152344 35.957031 5.226562 C 35.835938 5.316406 35.691406 5.359375 35.542969 5.355469 C 35.363281 5.367188 35.1875 5.300781 35.058594 5.179688 C 34.941406 5.050781 34.878906 4.886719 34.886719 4.714844 L 34.886719 4.679688 C 34.878906 4.507812 34.941406 4.34375 35.058594 4.214844 C 35.3125 3.996094 35.695312 3.976562 35.96875 4.167969 C 36.074219 4.253906 36.132812 4.382812 36.125 4.515625 L 35.773438 4.515625 C 35.777344 4.457031 35.753906 4.398438 35.714844 4.355469 C 35.671875 4.308594 35.613281 4.285156 35.550781 4.289062 C 35.460938 4.28125 35.378906 4.324219 35.335938 4.398438 C 35.289062 4.480469 35.269531 4.570312 35.273438 4.664062 L 35.273438 4.699219 C 35.269531 4.792969 35.289062 4.886719 35.335938 4.96875 C 35.375 5.046875 35.453125 5.097656 35.542969 5.101562 Z M 35.542969 5.101562 "/>
<path style=" stroke:none;fill-rule:nonzero;fill:rgb(28.235294%,28.235294%,28.235294%);fill-opacity:1;" d="M 36.710938 4.234375 C 36.800781 4.117188 36.945312 4.050781 37.09375 4.050781 C 37.222656 4.050781 37.34375 4.097656 37.433594 4.183594 C 37.527344 4.296875 37.574219 4.441406 37.558594 4.585938 L 37.558594 5.332031 L 37.179688 5.332031 L 37.179688 4.585938 C 37.1875 4.511719 37.164062 4.4375 37.121094 4.375 C 37.074219 4.332031 37.011719 4.308594 36.945312 4.3125 C 36.898438 4.3125 36.851562 4.320312 36.808594 4.339844 C 36.769531 4.355469 36.734375 4.378906 36.707031 4.410156 L 36.707031 5.339844 L 36.332031 5.339844 L 36.332031 3.519531 L 36.714844 3.519531 Z M 36.710938 4.234375 "/>
<path style=" stroke:none;fill-rule:nonzero;fill:rgb(28.235294%,28.235294%,28.235294%);fill-opacity:1;" d="M 38.476562 5.359375 C 38.296875 5.363281 38.125 5.300781 37.996094 5.183594 C 37.875 5.066406 37.808594 4.90625 37.8125 4.738281 L 37.8125 4.691406 C 37.804688 4.523438 37.867188 4.355469 37.984375 4.230469 C 38.105469 4.105469 38.277344 4.042969 38.449219 4.050781 C 38.613281 4.042969 38.773438 4.097656 38.894531 4.203125 C 39.003906 4.316406 39.0625 4.464844 39.054688 4.617188 L 39.054688 4.800781 L 38.210938 4.800781 C 38.210938 4.878906 38.246094 4.953125 38.300781 5.007812 C 38.363281 5.0625 38.445312 5.089844 38.527344 5.085938 C 38.597656 5.089844 38.671875 5.082031 38.738281 5.0625 C 38.800781 5.046875 38.863281 5.023438 38.921875 4.992188 L 39.027344 5.203125 C 38.957031 5.25 38.878906 5.285156 38.800781 5.308594 C 38.695312 5.339844 38.585938 5.359375 38.476562 5.359375 Z M 38.441406 4.3125 C 38.378906 4.3125 38.316406 4.339844 38.277344 4.386719 C 38.234375 4.441406 38.207031 4.507812 38.199219 4.574219 L 38.679688 4.574219 L 38.679688 4.546875 C 38.683594 4.480469 38.664062 4.421875 38.625 4.371094 C 38.574219 4.328125 38.507812 4.304688 38.441406 4.3125 Z M 38.441406 4.3125 "/>
<path style=" stroke:none;fill-rule:nonzero;fill:rgb(28.235294%,28.235294%,28.235294%);fill-opacity:1;" d="M 59.855469 5.476562 L 59.648438 5.476562 L 59.648438 6.09375 L 59.519531 6.09375 L 59.519531 5.476562 L 59.3125 5.476562 L 59.3125 5.367188 L 59.855469 5.367188 Z M 60.613281 5.628906 L 60.402344 6.089844 L 60.332031 6.089844 L 60.113281 5.605469 L 60.113281 6.089844 L 59.980469 6.089844 L 59.980469 5.367188 L 60.144531 5.367188 L 60.371094 5.894531 L 60.613281 5.367188 L 60.769531 5.367188 L 60.769531 6.09375 L 60.636719 6.09375 Z M 60.613281 5.628906 "/>
</g>
</svg>
