<?xml version="1.0" encoding="UTF-8"?>
<svg xmlns="http://www.w3.org/2000/svg" xmlns:xlink="http://www.w3.org/1999/xlink" width="64px" height="64px" viewBox="0 0 64 63" version="1.1">
<g id="surface1">
<path style=" stroke:none;fill-rule:nonzero;fill:rgb(90.980392%,46.27451%,17.647059%);fill-opacity:1;" d="M 30.25 42.5625 L 33.75 42.5625 L 33.75 33.035156 L 42.558594 33.035156 L 42.558594 29.648438 L 33.75 29.648438 L 33.75 20.117188 L 30.25 20.117188 L 30.25 29.648438 L 21.546875 29.648438 L 21.546875 33.035156 L 30.25 33.035156 Z M 30.25 42.5625 "/>
<path style=" stroke:none;fill-rule:nonzero;fill:rgb(78.039216%,12.54902%,21.568627%);fill-opacity:1;" d="M 14.011719 56.328125 L 16.980469 56.328125 L 16.980469 47.859375 L 24.835938 47.859375 L 24.835938 45.210938 L 16.980469 45.210938 L 16.980469 36.636719 L 14.011719 36.636719 L 14.011719 45.210938 L 6.15625 45.210938 L 6.15625 47.859375 L 14.011719 47.859375 Z M 14.011719 56.328125 "/>
<path style=" stroke:none;fill-rule:nonzero;fill:rgb(35.686275%,52.941176%,60.784314%);fill-opacity:1;" d="M 47.019531 25.730469 L 49.988281 25.730469 L 49.988281 17.261719 L 57.949219 17.261719 L 57.949219 14.71875 L 49.988281 14.71875 L 49.988281 6.144531 L 47.019531 6.144531 L 47.019531 14.71875 L 39.164062 14.71875 L 39.164062 17.261719 L 47.019531 17.261719 Z M 47.019531 25.730469 "/>
<path style=" stroke:none;fill-rule:nonzero;fill:rgb(36.078431%,40%,57.254902%);fill-opacity:1;" d="M 30.78125 62.996094 L 33.328125 62.996094 L 33.328125 56.964844 L 38.738281 56.964844 L 38.738281 54.738281 L 33.328125 54.738281 L 33.328125 48.703125 L 30.78125 48.703125 L 30.78125 54.738281 L 25.472656 54.738281 L 25.472656 56.964844 L 30.78125 56.964844 Z M 30.78125 62.996094 "/>
<path style=" stroke:none;fill-rule:nonzero;fill:rgb(92.156863%,56.862745%,16.078431%);fill-opacity:1;" d="M 14.117188 25.730469 L 16.875 25.730469 L 16.875 17.152344 L 24.835938 17.152344 L 24.835938 14.71875 L 16.875 14.71875 L 16.875 6.144531 L 14.117188 6.144531 L 14.117188 14.71875 L 6.15625 14.71875 L 6.15625 17.152344 L 14.117188 17.152344 Z M 14.117188 25.730469 "/>
<path style=" stroke:none;fill-rule:nonzero;fill:rgb(36.078431%,40%,57.254902%);fill-opacity:1;" d="M 56.039062 38.433594 L 58.585938 38.433594 L 58.585938 32.503906 L 64 32.503906 L 64 30.175781 L 58.585938 30.175781 L 58.585938 24.246094 L 56.039062 24.246094 L 56.039062 30.175781 L 50.734375 30.175781 L 50.734375 32.503906 L 56.039062 32.503906 Z M 56.039062 38.433594 "/>
<path style=" stroke:none;fill-rule:evenodd;fill:rgb(12.156863%,27.058824%,49.411765%);fill-opacity:1;" d="M 47.019531 56.328125 L 49.988281 56.328125 L 49.988281 47.859375 L 57.949219 47.859375 L 57.949219 45.210938 L 49.988281 45.210938 L 49.988281 36.636719 L 47.019531 36.636719 L 47.019531 45.210938 L 39.164062 45.210938 L 39.164062 47.859375 L 47.019531 47.859375 Z M 47.019531 56.328125 "/>
<path style=" stroke:none;fill-rule:nonzero;fill:rgb(44.313725%,60%,65.098039%);fill-opacity:1;" d="M 38.316406 7.625 L 38.316406 5.824219 L 33.007812 5.824219 L 33.007812 0.00390625 L 31.097656 0.00390625 L 31.097656 5.824219 L 25.792969 5.824219 L 25.792969 7.625 L 31.097656 7.625 L 31.097656 13.449219 L 33.007812 13.449219 L 33.007812 7.625 Z M 5.308594 38.011719 L 7.21875 38.011719 L 7.21875 32.1875 L 12.523438 32.1875 L 12.523438 30.386719 L 7.21875 30.386719 L 7.21875 24.671875 L 5.308594 24.671875 L 5.308594 30.386719 L 0 30.386719 L 0 32.292969 L 5.308594 32.1875 Z M 5.308594 38.011719 "/>
</g>
</svg>
