<?xml version="1.0" encoding="UTF-8"?>
<svg xmlns="http://www.w3.org/2000/svg" xmlns:xlink="http://www.w3.org/1999/xlink" width="64px" height="64px" viewBox="0 0 64 68" version="1.1">
<g id="surface1">
<path style=" stroke:none;fill-rule:nonzero;fill:rgb(89.803922%,35.686275%,17.647059%);fill-opacity:1;" d="M 36.429688 10.445312 L 36.429688 20.894531 L 54.648438 31.34375 L 54.648438 20.894531 Z M 0 20.894531 L 0 31.34375 L 9.109375 36.566406 L 9.109375 26.117188 Z M 27.324219 26.117188 L 18.214844 31.34375 L 18.214844 62.683594 L 27.324219 67.910156 L 27.324219 47.011719 L 36.429688 52.238281 L 36.429688 41.789062 L 27.324219 36.566406 Z M 27.324219 26.117188 "/>
<path style=" stroke:none;fill-rule:nonzero;fill:rgb(92.941176%,55.686275%,14.117647%);fill-opacity:1;" d="M 36.429688 10.445312 L 9.109375 26.117188 L 9.109375 36.566406 L 27.324219 26.117188 L 27.324219 36.566406 L 36.429688 31.34375 Z M 63.753906 15.671875 L 54.648438 20.894531 L 54.648438 31.34375 L 63.753906 26.117188 Z M 45.539062 36.566406 L 36.429688 41.789062 L 36.429688 52.238281 L 45.539062 47.011719 Z M 36.429688 52.238281 L 27.324219 47.011719 L 27.324219 67.910156 L 36.429688 62.683594 Z M 36.429688 52.238281 "/>
<path style=" stroke:none;fill-rule:nonzero;fill:rgb(97.254902%,74.901961%,23.529412%);fill-opacity:1;" d="M 36.429688 0 L 0 20.894531 L 9.109375 26.117188 L 36.429688 10.445312 L 54.648438 20.894531 L 63.753906 15.671875 Z M 36.429688 31.34375 L 27.324219 36.566406 L 36.429688 41.789062 L 45.539062 36.566406 Z M 36.429688 31.34375 "/>
</g>
</svg>
